<svg width="111" height="121" viewBox="0 0 111 121" fill="none" xmlns="http://www.w3.org/2000/svg">
<g clip-path="url(#clip0_115_351)">
<mask id="mask0_115_351" style="mask-type:luminance" maskUnits="userSpaceOnUse" x="0" y="0" width="111" height="121">
<path d="M111 0H0V121H111V0Z" fill="white"/>
</mask>
<g mask="url(#mask0_115_351)">
<path d="M36.5 41.5L44 40.3758C44 40.3758 48.6923 42.9921 58.3791 43.7788C61.8787 44.063 65.1684 42.2532 67.1287 39.3404C69.7481 35.4482 69.9683 30.4172 67.6988 26.3111L62 16C66.0129 17.1483 65.1461 12.3362 63.9928 11.5676C67.5713 13.9528 70.7718 16.8613 73.4874 20.196L73.6242 20.3639L75.5079 22.3055C75.5901 22.3903 75.6567 22.489 75.7045 22.5969L76.7491 24.9557C76.844 25.1698 76.8606 25.4105 76.7962 25.6357L75.7096 29.433L73.3833 37.5622C73.3525 37.6697 73.3039 37.7713 73.2395 37.8628L71.6817 40.0752C71.6173 40.1667 71.5687 40.2683 71.538 40.3758L69.2069 48.5218C69.0384 49.1107 69.0542 49.7371 69.2522 50.3167L70.0799 52.7405L74.6466 63.052C74.9003 63.6247 74.571 64.287 73.9612 64.4304L71.3957 65.0338C69.6501 65.4444 68.3911 66.9665 68.3151 68.758L68.2064 71.3211C68.1864 71.7924 67.8397 72.1857 67.3746 72.2646L60.3907 73.4498C59.5629 73.5903 59.2663 74.6266 59.8944 75.1838L63.7654 78.617C64.3201 79.109 64.1653 80.0123 63.4786 80.2915L58.9464 82.1343C58.6618 82.2503 58.4462 82.4903 58.3617 82.7853L55.8967 91.3993C55.6161 92.3803 55.0153 93.2383 54.1901 93.8373C53.7306 94.1713 53.2109 94.4123 52.6597 94.5493L51.8797 94.7433C51.1092 94.9343 50.2984 94.8803 49.5595 94.5903L48.8634 94.3173C46.9733 93.5743 45.168 92.6323 43.4782 91.5063L41.6437 90.2833C41.2032 89.9903 40.604 90.1863 40.4224 90.6833L34.5 114.5L33.1141 113.807C18.4808 106.49 6.79443 94.383 0 79.5L3 74.5C5.60775 70.1498 7.26663 66.0448 6.37483 61.0519L3.6981 46.0669C3.34171 44.0717 3.26275 42.0368 3.46344 40.0199L3.60581 38.5891C4.04632 34.1618 5.11333 29.8196 6.77473 25.6923L16 36C16.9726 33.584 24.7965 40.5591 26.5 38.5891C27.5 41.5 27.5 38.5891 30 41.5L33.4533 46.5784C34.6554 48.3462 37.4198 47.2488 37.082 45.1378L36.5 41.5Z" fill="#6BCAFF"/>
<path d="M34.5841 27.9328L34.4864 28.2742L33.1276 27.8853L33.2253 27.5439L34.5841 27.9328ZM33.8011 27.0291L34.204 27.1443L33.4888 29.6435C33.4562 29.7573 33.4483 29.8473 33.465 29.9137C33.4832 29.9792 33.5157 30.0291 33.5625 30.0635C33.6108 30.097 33.6645 30.1222 33.7237 30.1391C33.7681 30.1519 33.8052 30.16 33.8349 30.1636C33.865 30.166 33.8891 30.168 33.9071 30.1695L33.8855 30.5548C33.8552 30.5572 33.8142 30.5566 33.7623 30.5528C33.7101 30.5502 33.6465 30.5381 33.5714 30.5166C33.4576 30.4841 33.353 30.4277 33.2578 30.3475C33.1637 30.2676 33.0951 30.1673 33.0521 30.0467C33.0102 29.9263 33.011 29.7899 33.0547 29.6374L33.8011 27.0291Z" fill="#6BCAFF"/>
<path d="M31.5926 10.8297C31.4264 10.7822 31.2846 10.7078 31.1671 10.6064C31.0499 10.5039 30.9686 10.3815 30.9231 10.2392C30.878 10.0958 30.8798 9.93879 30.9287 9.76799C30.9716 9.61779 31.0361 9.50449 31.122 9.42809C31.2082 9.35059 31.3084 9.29929 31.4227 9.27409C31.5371 9.24899 31.6577 9.24039 31.7847 9.24839C31.9131 9.25559 32.0405 9.26869 32.1669 9.28759C32.332 9.31269 32.4656 9.33429 32.5675 9.35239C32.6709 9.36969 32.7492 9.37169 32.8022 9.35859C32.8563 9.34579 32.8927 9.30689 32.9112 9.24209L32.9151 9.22839C32.9633 9.05999 32.9547 8.91589 32.8892 8.79619C32.8249 8.67679 32.7 8.59059 32.5145 8.53749C32.3221 8.48249 32.1593 8.48149 32.026 8.53439C31.8926 8.58739 31.7901 8.65529 31.7183 8.73819L31.375 8.49219C31.4889 8.35239 31.6154 8.25439 31.7546 8.19819C31.8953 8.14119 32.0384 8.11439 32.1839 8.11789C32.3309 8.12059 32.4704 8.14079 32.6024 8.17859C32.6866 8.20269 32.7804 8.24059 32.8838 8.29229C32.9887 8.34329 33.0835 8.41409 33.1684 8.50489C33.2543 8.59599 33.3137 8.71329 33.3465 8.85689C33.3793 9.00049 33.3659 9.17639 33.3063 9.38469L32.8119 11.1122L32.4091 10.9969L32.5107 10.6418L32.4902 10.636C32.4466 10.6851 32.3836 10.7329 32.3014 10.7796C32.2191 10.8262 32.1185 10.8571 31.9996 10.8724C31.8808 10.8876 31.7451 10.8734 31.5926 10.8297ZM31.7576 10.4854C31.9169 10.531 32.0602 10.5382 32.1873 10.5068C32.3156 10.4758 32.4218 10.4188 32.5059 10.3358C32.5912 10.253 32.6494 10.157 32.6807 10.0478L32.7862 9.67909C32.7633 9.69469 32.7203 9.70269 32.6574 9.70319C32.5959 9.70279 32.5259 9.69809 32.4472 9.68919C32.3699 9.67939 32.2947 9.66889 32.2216 9.65789C32.1499 9.64599 32.0916 9.63669 32.0467 9.62999C31.9381 9.61369 31.8339 9.60789 31.7341 9.61249C31.6357 9.61639 31.55 9.64049 31.477 9.68489C31.4054 9.72839 31.355 9.80139 31.3257 9.90379C31.2856 10.0438 31.3071 10.1645 31.3901 10.2658C31.4746 10.3663 31.5971 10.4395 31.7576 10.4854Z" fill="#6BCAFF"/>
<path d="M40.6179 13.8328C40.3721 13.7624 40.1771 13.6438 40.0327 13.4769C39.8884 13.3101 39.7976 13.1111 39.7603 12.88C39.723 12.649 39.7418 12.4026 39.8167 12.1408C39.8929 11.8745 40.0091 11.6535 40.1653 11.4778C40.3229 11.3013 40.5064 11.1808 40.7156 11.1163C40.9264 11.0511 41.1501 11.0523 41.3868 11.12C41.5712 11.1728 41.7276 11.2545 41.856 11.3651C41.9844 11.4757 42.0782 11.606 42.1375 11.7559C42.1968 11.9059 42.2144 12.066 42.1902 12.2364L41.7874 12.1211C41.7908 11.9929 41.7529 11.8675 41.6734 11.745C41.5954 11.6217 41.4676 11.5347 41.2901 11.4839C41.1331 11.4389 40.9836 11.4405 40.8418 11.4886C40.7015 11.5358 40.5771 11.624 40.4688 11.753C40.3619 11.8813 40.2802 12.0444 40.2235 12.2424C40.1655 12.445 40.1469 12.6305 40.1676 12.799C40.1895 12.9678 40.2472 13.1105 40.3406 13.2271C40.4352 13.344 40.5622 13.4253 40.7215 13.4709C40.8262 13.5009 40.9264 13.5098 41.0222 13.4978C41.118 13.4859 41.2052 13.4542 41.2839 13.4028C41.3627 13.3515 41.4282 13.2816 41.4806 13.1932L41.8835 13.3085C41.8164 13.4567 41.7202 13.58 41.5948 13.6783C41.4709 13.7758 41.3251 13.84 41.1574 13.8708C40.9912 13.9008 40.8114 13.8881 40.6179 13.8328Z" fill="#6BCAFF"/>
<path d="M38.6171 20.5412C38.3985 20.4786 38.2214 20.3682 38.0857 20.21C37.9504 20.0506 37.8644 19.8561 37.828 19.6265C37.7918 19.3957 37.8134 19.1415 37.8929 18.8638C37.9717 18.5884 38.0873 18.363 38.2398 18.1874C38.3922 18.0119 38.5684 17.893 38.7684 17.8308C38.9684 17.7686 39.1788 17.7691 39.3996 17.8323C39.5703 17.8812 39.697 17.9482 39.7798 18.0334C39.8639 18.1179 39.922 18.2034 39.9538 18.2901C39.9871 18.376 40.012 18.4459 40.0286 18.4999L40.0627 18.5096L40.432 17.2191L40.8349 17.3344L39.8344 20.8304L39.4452 20.7191L39.5605 20.3162L39.5127 20.3025C39.4695 20.3418 39.4101 20.3901 39.3346 20.4473C39.2595 20.5034 39.1631 20.5454 39.0456 20.5733C38.9283 20.6001 38.7855 20.5894 38.6171 20.5412ZM38.7752 20.1949C38.9368 20.2411 39.0855 20.2381 39.2211 20.1858C39.357 20.1324 39.4755 20.0389 39.5765 19.9052C39.6779 19.7705 39.7569 19.6041 39.8136 19.4061C39.8696 19.2103 39.8902 19.0309 39.8753 18.8678C39.8607 18.7036 39.8094 18.5646 39.7213 18.4507C39.6335 18.3357 39.5077 18.2548 39.3438 18.2079C39.1731 18.159 39.0183 18.1621 38.8795 18.2172C38.7421 18.2715 38.6236 18.365 38.524 18.4978C38.4259 18.6298 38.3505 18.7879 38.2977 18.9723C38.2443 19.1589 38.2242 19.3367 38.2375 19.5054C38.2522 19.6734 38.3031 19.8185 38.39 19.9406C38.4784 20.0619 38.6068 20.1467 38.7752 20.1949Z" fill="#6BCAFF"/>
<path d="M50.0356 14.7666L49.0352 18.2627L48.6323 18.1474L49.6328 14.6513L50.0356 14.7666Z" fill="#6BCAFF"/>
<path d="M36.4629 4.7932L36.7843 6.045L37.7193 5.1528L38.1836 5.2856L36.9617 6.3543L37.4333 7.9077L36.969 7.7748L36.6319 6.5776L35.7126 7.4153L35.2483 7.2824L36.4565 6.2098L35.9986 4.6604L36.4629 4.7932Z" fill="#6BCAFF"/>
<path d="M19.1646 11.7951L19.2525 11.4878L21.2882 10.0019L21.2959 9.97461L19.8552 9.56231L19.9627 9.18671L21.9223 9.74751L21.8306 10.0684L19.8398 11.5524L19.832 11.5798L21.3272 12.0077L21.2199 12.3832L19.1646 11.7951Z" fill="#6BCAFF"/>
<path d="M27.5131 6.23678L27.0617 7.81408L26.6589 7.69878L27.4092 5.07678L27.7984 5.18818L27.6811 5.59788L27.7153 5.60758C27.8148 5.49208 27.9388 5.41178 28.0871 5.36678C28.2357 5.32068 28.409 5.32598 28.6071 5.38268C28.7846 5.43348 28.9295 5.51428 29.0418 5.62528C29.1545 5.73508 29.2267 5.87398 29.2587 6.04188C29.291 6.20878 29.2752 6.40368 29.2114 6.62678L28.7346 8.29278L28.3318 8.17758L28.8007 6.53878C28.8597 6.33278 28.8521 6.15698 28.778 6.01148C28.7043 5.86478 28.5741 5.76468 28.3874 5.71128C28.2588 5.67448 28.1359 5.66948 28.0187 5.69628C27.9026 5.72338 27.8002 5.78208 27.7115 5.87248C27.6229 5.96288 27.5567 6.08428 27.5131 6.23678Z" fill="#6BCAFF"/>
<path d="M36 38.622L36.7503 36L37.1395 36.1114L37.0223 36.5211L37.0564 36.5308C37.1511 36.4065 37.2704 36.3231 37.4143 36.2805C37.5586 36.2368 37.716 36.2394 37.8867 36.2883C38.0597 36.3378 38.1924 36.4182 38.2849 36.5296C38.3788 36.6402 38.4382 36.7748 38.463 36.9334L38.4903 36.9412C38.5962 36.825 38.7277 36.7462 38.8848 36.705C39.0422 36.6626 39.2148 36.6683 39.4026 36.7221C39.637 36.7891 39.8078 36.9174 39.9149 37.1069C40.0223 37.2952 40.0318 37.5436 39.9436 37.852L39.4414 39.6068L39.0385 39.4916L39.5407 37.7367C39.5961 37.5432 39.5827 37.3898 39.5007 37.2765C39.4186 37.1631 39.3059 37.0859 39.1625 37.0449C38.9781 36.9921 38.8193 37.007 38.6861 37.0895C38.5533 37.171 38.4626 37.2964 38.414 37.466L37.9255 39.1731L37.5158 39.0558L38.0297 37.26C38.0724 37.1109 38.0584 36.977 37.9877 36.8583C37.9174 36.7384 37.8059 36.6567 37.6534 36.613C37.5487 36.5831 37.4429 36.583 37.3359 36.6127C37.23 36.6427 37.135 36.6992 37.051 36.7823C36.9683 36.8645 36.9086 36.97 36.8718 37.0985L36.4028 38.7373L36 38.622Z" fill="#6BCAFF"/>
<path d="M64.9411 27.2586L64.8434 27.6L63.4845 27.2111L63.5823 26.8697L64.9411 27.2586ZM64.158 26.3549L64.5609 26.4701L63.8458 28.9693C63.8132 29.0831 63.8053 29.1731 63.822 29.2395C63.8402 29.305 63.8727 29.355 63.9195 29.3893C63.9678 29.4228 64.0215 29.448 64.0807 29.465C64.1251 29.4777 64.1621 29.4858 64.1919 29.4894C64.222 29.4918 64.246 29.4938 64.2641 29.4953L64.2424 29.8806C64.2122 29.883 64.1711 29.8824 64.1193 29.8786C64.0671 29.876 64.0034 29.8639 63.9283 29.8424C63.8145 29.8099 63.71 29.7535 63.6148 29.6733C63.5206 29.5934 63.452 29.4931 63.4089 29.3725C63.367 29.2521 63.368 29.1157 63.4116 28.9632L64.158 26.3549Z" fill="#6BCAFF"/>
<path d="M25.3437 12.8553L25.4795 12.3549L25.5615 12.3784L27.0427 11.539L27.5412 11.6817L25.9653 12.5678L25.9311 12.558L25.3437 12.8553ZM24.6946 13.7038L25.695 10.2078L26.0979 10.3231L25.0975 13.8191L24.6946 13.7038ZM26.3607 14.1806L25.7077 12.5901L26.0746 12.3922L26.8728 14.3271L26.3607 14.1806Z" fill="#6BCAFF"/>
<path d="M58.1714 21.1608L58.5742 21.2761L57.7692 24.0893C57.7229 24.2509 57.655 24.3829 57.5654 24.4853C57.4769 24.588 57.3676 24.6558 57.2375 24.6888C57.1085 24.7221 56.9599 24.7146 56.7914 24.6664C56.7778 24.6625 56.7641 24.6586 56.7505 24.6547C56.7368 24.6508 56.7231 24.6469 56.7095 24.643L56.817 24.2674C56.8306 24.2713 56.8431 24.2749 56.8545 24.2782C56.8659 24.2814 56.8784 24.285 56.8921 24.2889C57.015 24.3241 57.1153 24.3134 57.193 24.2568C57.2705 24.2014 57.3282 24.1071 57.3663 23.974L58.1714 21.1608ZM58.4944 20.7804C58.4159 20.758 58.3559 20.7118 58.3143 20.6421C58.2738 20.5726 58.2643 20.5003 58.2858 20.4252C58.3073 20.3501 58.3536 20.2938 58.4247 20.2563C58.4969 20.2191 58.5722 20.2117 58.6508 20.2342C58.7293 20.2566 58.7888 20.3026 58.8292 20.372C58.8708 20.4418 58.8809 20.5143 58.8594 20.5894C58.8379 20.6645 58.791 20.7206 58.7188 20.7578C58.6478 20.7954 58.573 20.8029 58.4944 20.7804Z" fill="#6BCAFF"/>
<path d="M60.08 13.1022L60.0315 10.2515L60.4548 10.3727L60.4471 12.5423L60.4744 12.5502L61.6088 10.7029L62.039 10.826L62.0195 12.9849L62.0468 12.9927L63.1861 11.1543L63.6094 11.2754L62.0602 13.6688L61.6642 13.5555L61.667 11.377L61.6261 11.3653L60.4761 13.2155L60.08 13.1022Z" fill="#6BCAFF"/>
<path d="M48.4915 2.06874C48.5575 2.04224 48.6186 2.02414 48.6751 2.01414C48.7311 2.00324 48.7712 1.99864 48.7953 2.00034L48.848 2.37684C48.7429 2.39094 48.6555 2.41574 48.5859 2.45134C48.5163 2.48684 48.4663 2.54444 48.4361 2.62414C48.4042 2.70324 48.3931 2.81534 48.4027 2.96054L48.4176 3.18394L50.4791 5.30844L50.0572 5.47764L48.4664 3.77604L48.4399 3.78664L48.6334 6.04854L48.2114 6.21764L48.0031 2.93724C47.9936 2.78944 48.0057 2.65914 48.0392 2.54634C48.0723 2.43244 48.1267 2.33604 48.2027 2.25714C48.2776 2.17864 48.374 2.11584 48.4915 2.06874Z" fill="#6BCAFF"/>
<path d="M44.9504 21.6325L43.95 25.1286L43.5471 25.0133L44.5475 21.5172L44.9504 21.6325Z" fill="#6BCAFF"/>
<path d="M39.0486 28.8507L39 26L39.4233 26.1212L39.4156 28.2909L39.4429 28.2987L40.5773 26.4514L41.0075 26.5745L40.988 28.7335L41.0154 28.7413L42.1546 26.9028L42.578 27.0239L41.0287 29.4173L40.6327 29.304L40.6356 27.1256L40.5946 27.1138L39.4446 28.964L39.0486 28.8507Z" fill="#6BCAFF"/>
<path d="M60.5752 13.4536C60.6412 13.4272 60.7024 13.409 60.7589 13.3991C60.8149 13.3881 60.855 13.3835 60.8791 13.3853L60.9318 13.7617C60.8267 13.7758 60.7393 13.8007 60.6697 13.8362C60.6001 13.8718 60.5501 13.9294 60.5199 14.0091C60.488 14.0881 60.4769 14.2002 60.4865 14.3455L60.5014 14.5688L62.5629 16.6933L62.141 16.8625L60.5501 15.1609L60.5237 15.1715L60.7171 17.4334L60.2952 17.6026L60.0869 14.3222C60.0774 14.1744 60.0894 14.044 60.1229 13.9312C60.156 13.8173 60.2105 13.7209 60.2865 13.642C60.3614 13.5635 60.4577 13.5007 60.5752 13.4536Z" fill="#6BCAFF"/>
<path d="M44.5054 32.5685L45.2557 29.9465L45.6586 30.0618L44.9083 32.6838L44.5054 32.5685ZM45.5856 29.5681C45.5071 29.5456 45.4471 29.4995 45.4055 29.4297C45.365 29.3603 45.3555 29.288 45.377 29.2129C45.3985 29.1378 45.4448 29.0815 45.5159 29.0439C45.5881 29.0067 45.6634 28.9994 45.742 29.0218C45.8205 29.0443 45.88 29.0903 45.9204 29.1597C45.962 29.2295 45.9721 29.3019 45.9506 29.377C45.9291 29.4521 45.8822 29.5083 45.81 29.5455C45.739 29.583 45.6642 29.5906 45.5856 29.5681Z" fill="#6BCAFF"/>
<path d="M50.9584 25.3375L50.8607 25.6789L49.4473 25.2745L49.545 24.933L50.9584 25.3375ZM49.218 27.6762L50.0719 24.6923C50.1149 24.5421 50.186 24.427 50.2852 24.347C50.3844 24.2671 50.4975 24.2182 50.6245 24.2003C50.7515 24.1825 50.8776 24.1915 51.0028 24.2273C51.1018 24.2557 51.1803 24.2868 51.2384 24.3206C51.2964 24.3544 51.3388 24.3826 51.3656 24.405L51.1499 24.7201C51.1314 24.7074 51.1054 24.6907 51.0719 24.67C51.0395 24.6497 50.9943 24.6312 50.9363 24.6146C50.8031 24.5765 50.6974 24.5826 50.619 24.6328C50.5417 24.6833 50.4845 24.7734 50.4474 24.9032L49.6209 27.7915L49.218 27.6762Z" fill="#6BCAFF"/>
<path d="M43.3409 40.6391C43.1463 40.5834 42.9862 40.5105 42.8606 40.4204C42.7346 40.3314 42.6365 40.2332 42.5663 40.1257C42.4969 40.0196 42.4479 39.9133 42.4194 39.8066L42.8048 39.6731C42.8275 39.7313 42.858 39.7991 42.8961 39.8765C42.934 39.9551 42.9948 40.031 43.0785 40.1042C43.163 40.1788 43.2844 40.2388 43.4425 40.2841C43.6542 40.3446 43.8436 40.3434 44.0106 40.2804C44.1776 40.2174 44.2924 40.0766 44.3549 39.8581L44.5073 39.3255L44.4731 39.3157C44.4299 39.3551 44.3708 39.4022 44.296 39.4571C44.2227 39.5112 44.1275 39.5511 44.0106 39.5768C43.8952 39.6016 43.7521 39.5896 43.5814 39.5407C43.3697 39.4802 43.194 39.3757 43.0542 39.2274C42.9156 39.0793 42.8247 38.8957 42.7815 38.6765C42.7395 38.4577 42.7576 38.2117 42.8357 37.9385C42.9126 37.67 43.0267 37.4496 43.1782 37.2775C43.33 37.1042 43.5057 36.9871 43.7054 36.926C43.9054 36.8638 44.1158 36.8643 44.3366 36.9275C44.5073 36.9763 44.6346 37.0435 44.7184 37.1291C44.8038 37.2139 44.8629 37.2997 44.8959 37.3867C44.9303 37.4729 44.9558 37.543 44.9724 37.597L45.0133 37.6087L45.1325 37.1922L45.5217 37.3036L44.7499 40.0007C44.6854 40.226 44.5818 40.3946 44.439 40.5064C44.297 40.6197 44.1306 40.6847 43.9399 40.7016C43.75 40.7199 43.5503 40.6991 43.3409 40.6391ZM43.7396 39.1945C43.9012 39.2407 44.0483 39.2428 44.181 39.2008C44.3137 39.1587 44.4289 39.0766 44.5267 38.9543C44.6245 38.8321 44.701 38.6742 44.7564 38.4808C44.8105 38.2919 44.8297 38.117 44.8142 37.9562C44.7986 37.7954 44.7468 37.658 44.6588 37.5442C44.5707 37.4303 44.4447 37.35 44.2808 37.3031C44.1101 37.2542 43.9555 37.2568 43.8169 37.3107C43.6795 37.3649 43.5615 37.4567 43.4629 37.5861C43.3655 37.7158 43.2914 37.8695 43.2406 38.047C43.1884 38.2291 43.1708 38.3983 43.1877 38.5545C43.206 38.71 43.2601 38.8436 43.3499 38.9555C43.4413 39.0666 43.5711 39.1463 43.7396 39.1945Z" fill="#6BCAFF"/>
<path d="M58.3627 35.5529C58.11 35.4806 57.908 35.3625 57.7567 35.1985C57.6069 35.0337 57.5113 34.8365 57.4699 34.6067C57.43 34.3761 57.4485 34.1265 57.5253 33.858C57.6022 33.5894 57.7189 33.3667 57.8754 33.1898C58.0333 33.0122 58.2169 32.8911 58.4262 32.8267C58.637 32.7614 58.8607 32.7626 59.0974 32.8304C59.234 32.8694 59.3623 32.9308 59.4824 33.0144C59.6026 33.098 59.7026 33.2067 59.7825 33.3404C59.8628 33.4729 59.9114 33.6321 59.9284 33.818C59.9454 34.0038 59.9189 34.2191 59.8489 34.4638L59.8001 34.6345L57.7789 34.0561L57.8786 33.7079L59.49 34.169C59.5324 34.0211 59.5405 33.8806 59.5146 33.7476C59.4898 33.6149 59.4329 33.4995 59.344 33.4014C59.2562 33.3037 59.1395 33.2339 58.9939 33.1923C58.8334 33.1463 58.6832 33.1464 58.5431 33.1926C58.4046 33.2379 58.2859 33.3147 58.1872 33.4231C58.0885 33.5315 58.0184 33.658 57.9771 33.8025L57.9106 34.0347C57.854 34.2327 57.8401 34.4103 57.8689 34.5676C57.8993 34.724 57.9656 34.8557 58.068 34.9625C58.1708 35.0683 58.3035 35.1444 58.4662 35.191C58.5721 35.2213 58.6719 35.2338 58.7657 35.2287C58.861 35.2227 58.9486 35.1985 59.0284 35.1561C59.1086 35.1126 59.1788 35.0501 59.239 34.9689L59.5969 35.1895C59.5182 35.3098 59.4161 35.4062 59.2907 35.4786C59.1656 35.55 59.024 35.5931 58.8658 35.6082C58.7079 35.6221 58.5402 35.6037 58.3627 35.5529Z" fill="#6BCAFF"/>
<path d="M38.4907 33.3014L38.0393 34.8787L37.6365 34.7634L38.6369 31.2674L39.0398 31.3827L38.6724 32.6664L38.7066 32.6762C38.8068 32.5583 38.9297 32.4771 39.0754 32.4327C39.2226 32.3874 39.3992 32.3942 39.6052 32.4531C39.7838 32.5042 39.9301 32.5849 40.0438 32.695C40.1579 32.804 40.231 32.9425 40.2629 33.1104C40.2963 33.2776 40.2808 33.4738 40.2163 33.6992L39.7396 35.3653L39.3367 35.25L39.8057 33.6112C39.8653 33.4029 39.8573 33.2264 39.7817 33.0817C39.7077 32.9362 39.5756 32.8362 39.3855 32.7818C39.2535 32.744 39.1272 32.738 39.0065 32.7638C38.887 32.79 38.7818 32.8479 38.6909 32.9376C38.6011 33.0276 38.5344 33.1489 38.4907 33.3014Z" fill="#6BCAFF"/>
<path d="M25.8772 26.764C25.6405 26.6963 25.4489 26.5805 25.3025 26.4167C25.1572 26.2532 25.0635 26.0559 25.0213 25.8247C24.9802 25.5938 24.9985 25.3429 25.076 25.072C25.1541 24.7989 25.2719 24.5747 25.4292 24.3993C25.5876 24.2242 25.7717 24.1058 25.9815 24.0439C26.1924 23.9824 26.4162 23.9855 26.6529 24.0532C26.8896 24.121 27.0806 24.2366 27.2259 24.4C27.3724 24.5638 27.4659 24.7617 27.5066 24.9938C27.5485 25.2261 27.5303 25.4789 27.4522 25.752C27.3747 26.0229 27.2569 26.2453 27.0988 26.4192C26.9418 26.5934 26.7578 26.7113 26.5469 26.7728C26.3371 26.8347 26.1139 26.8318 25.8772 26.764ZM25.9808 26.4021C26.1606 26.4536 26.3217 26.4498 26.4642 26.3909C26.6066 26.3319 26.7272 26.2353 26.826 26.101C26.9247 25.9668 26.9992 25.812 27.0493 25.6367C27.0995 25.4615 27.1183 25.2902 27.1059 25.1229C27.0934 24.9556 27.0425 24.8086 26.9531 24.6821C26.8638 24.5556 26.7292 24.4666 26.5494 24.4151C26.3696 24.3637 26.2083 24.368 26.0655 24.4281C25.9227 24.4882 25.8018 24.5859 25.7027 24.7213C25.6036 24.8567 25.529 25.0121 25.4788 25.1873C25.4287 25.3626 25.41 25.5333 25.4228 25.6995C25.4356 25.8657 25.4868 26.0114 25.5765 26.1368C25.6662 26.2622 25.8009 26.3507 25.9808 26.4021Z" fill="#6BCAFF"/>
<path d="M50.8179 32.3183L51.8497 28.713L52.2389 28.8243L52.1197 29.2409L52.1675 29.2545C52.2101 29.2175 52.2677 29.1712 52.3402 29.1156C52.4142 29.0592 52.5087 29.0173 52.6237 28.9899C52.7401 28.9616 52.8836 28.9719 53.0544 29.0208C53.2751 29.084 53.4539 29.1948 53.5908 29.3534C53.7276 29.512 53.8143 29.7061 53.8508 29.9357C53.8873 30.1653 53.8661 30.4178 53.7873 30.6932C53.7078 30.9709 53.5917 31.1981 53.439 31.3748C53.2865 31.5503 53.1107 31.6699 52.9115 31.7335C52.7126 31.7961 52.504 31.7961 52.2855 31.7335C52.117 31.6853 51.9901 31.6189 51.9048 31.5341C51.8198 31.4482 51.7603 31.3616 51.7262 31.2743C51.6924 31.1858 51.6675 31.1135 51.6516 31.0572L51.6175 31.0474L51.2208 32.4335L50.8179 32.3183ZM51.8705 30.1373C51.8139 30.3353 51.7929 30.5183 51.8076 30.6863C51.8227 30.8531 51.8737 30.9952 51.9608 31.1124C52.0483 31.2286 52.1728 31.3098 52.3344 31.356C52.5028 31.4042 52.6561 31.4 52.7941 31.3435C52.9337 31.2862 53.0535 31.19 53.1537 31.0549C53.2554 30.919 53.333 30.7577 53.3864 30.5711C53.4391 30.3867 53.4582 30.2124 53.4437 30.0482C53.4306 29.8832 53.3795 29.7411 53.2904 29.6221C53.2028 29.5022 53.0737 29.4178 52.903 29.369C52.7391 29.3221 52.5895 29.3242 52.4542 29.3754C52.3193 29.4254 52.2021 29.5163 52.1029 29.6479C52.004 29.7784 51.9265 29.9416 51.8705 30.1373Z" fill="#6BCAFF"/>
<path d="M17.1738 18.53L17.5704 17.1439L17.5363 17.1341C17.493 17.1734 17.4336 17.2217 17.3582 17.2789C17.283 17.335 17.1867 17.377 17.0691 17.4049C16.9519 17.4316 16.809 17.4209 16.6406 17.3727C16.4221 17.3102 16.245 17.1998 16.1093 17.0416C15.9739 16.8822 15.888 16.6877 15.8515 16.4581C15.8153 16.2273 15.837 15.9731 15.9164 15.6954C15.9953 15.42 16.1109 15.1946 16.2633 15.019C16.4157 14.8435 16.5919 14.7246 16.792 14.6624C16.992 14.6002 17.2024 14.6007 17.4232 14.6639C17.5939 14.7128 17.7206 14.7798 17.8033 14.865C17.8875 14.9494 17.9455 15.035 17.9773 15.1217C18.0106 15.2075 18.0356 15.2775 18.0521 15.3315L18.0999 15.3451L18.2191 14.9286L18.6083 15.04L17.5766 18.6453L17.1738 18.53ZM16.7988 17.0265C16.9604 17.0727 17.109 17.0697 17.2446 17.0174C17.3806 16.964 17.4991 16.8704 17.6001 16.7368C17.7015 16.6021 17.7805 16.4357 17.8371 16.2377C17.8931 16.0419 17.9137 15.8625 17.8988 15.6994C17.8842 15.5352 17.8329 15.3962 17.7448 15.2823C17.6571 15.1673 17.5313 15.0864 17.3674 15.0395C17.1967 14.9906 17.0419 14.9937 16.903 15.0488C16.7656 15.103 16.6471 15.1966 16.5476 15.3294C16.4495 15.4614 16.374 15.6195 16.3213 15.8039C16.2679 15.9905 16.2478 16.1682 16.261 16.337C16.2758 16.505 16.3266 16.65 16.4135 16.7722C16.5019 16.8935 16.6304 16.9783 16.7988 17.0265Z" fill="#6BCAFF"/>
<path d="M31 35.622L31.7504 33L32.1396 33.1114L32.0263 33.5074L32.0536 33.5152C32.1385 33.3992 32.2551 33.3186 32.4034 33.2737C32.5517 33.2287 32.7044 33.2287 32.8614 33.2736C32.891 33.2821 32.9279 33.2932 32.9719 33.3071C33.016 33.3209 33.049 33.3322 33.0712 33.341L32.9539 33.7507C32.9412 33.7434 32.9114 33.7293 32.8644 33.7085C32.8189 33.6868 32.7694 33.6684 32.7159 33.653C32.5885 33.6166 32.467 33.6107 32.3516 33.6356C32.2376 33.6596 32.1382 33.71 32.0535 33.7867C31.9702 33.8626 31.9116 33.9597 31.8777 34.078L31.4029 35.7373L31 35.622Z" fill="#6BCAFF"/>
<path d="M25.5219 18.6938L25.1307 18.6927C25.1252 18.6259 25.1084 18.5577 25.0803 18.4881C25.0537 18.4176 25.0082 18.3529 24.9438 18.2939C24.8795 18.2348 24.7887 18.1885 24.6715 18.155C24.511 18.1091 24.3667 18.1078 24.2386 18.1511C24.1119 18.1937 24.0324 18.2713 24.0002 18.384C23.9715 18.4841 23.9853 18.5736 24.0415 18.6525C24.0978 18.7314 24.1977 18.8123 24.3414 18.8953L24.7033 19.1023C24.9214 19.2263 25.0712 19.3633 25.1526 19.5134C25.2343 19.6624 25.249 19.8285 25.1965 20.0117C25.1535 20.1619 25.0719 20.2838 24.9515 20.3774C24.8323 20.4714 24.6861 20.5305 24.5129 20.5548C24.3397 20.5791 24.1513 20.5621 23.9476 20.5038C23.6802 20.4273 23.4754 20.3059 23.3334 20.1397C23.1913 19.9735 23.1289 19.7722 23.1461 19.5357L23.5558 19.5496C23.5518 19.7011 23.5904 19.8267 23.6715 19.9262C23.7537 20.0261 23.8774 20.0996 24.0424 20.1468C24.2301 20.2006 24.3906 20.2034 24.5238 20.1553C24.6585 20.1064 24.7419 20.0257 24.7741 19.913C24.8002 19.822 24.7902 19.7366 24.744 19.6569C24.6982 19.5761 24.6137 19.5014 24.4905 19.4329L24.0828 19.2054C23.8589 19.0798 23.7078 18.9411 23.6293 18.7894C23.5523 18.6368 23.5397 18.4701 23.5915 18.2892C23.6338 18.1412 23.7128 18.0222 23.8284 17.9322C23.9452 17.8425 24.0851 17.7859 24.2482 17.7624C24.4125 17.7392 24.5868 17.754 24.7711 17.8067C25.0306 17.881 25.218 17.9962 25.3334 18.1523C25.4499 18.3088 25.5128 18.4893 25.5219 18.6938Z" fill="#6BCAFF"/>
<path d="M30.8757 16.1924L31.0115 15.6919L31.0934 15.7154L32.5747 14.876L33.0731 15.0187L31.4972 15.9048L31.4631 15.8951L30.8757 16.1924ZM30.2266 17.0408L31.227 13.5448L31.6299 13.6601L30.6294 17.1561L30.2266 17.0408ZM31.8926 17.5176L31.2397 15.9272L31.6066 15.7293L32.4048 17.6642L31.8926 17.5176Z" fill="#6BCAFF"/>
<path d="M29.7787 21.9923L29.3875 21.9911C29.382 21.9243 29.3652 21.8561 29.3371 21.7865C29.3105 21.7161 29.265 21.6513 29.2006 21.5923C29.1363 21.5332 29.0455 21.4869 28.9283 21.4534C28.7678 21.4075 28.6235 21.4062 28.4954 21.4496C28.3687 21.4921 28.2892 21.5697 28.257 21.6824C28.2283 21.7825 28.2421 21.872 28.2983 21.9509C28.3546 22.0298 28.4545 22.1107 28.5982 22.1937L28.9601 22.4007C29.1782 22.5247 29.328 22.6617 29.4094 22.8118C29.4911 22.9608 29.5058 23.1269 29.4533 23.3101C29.4103 23.4603 29.3287 23.5823 29.2083 23.6759C29.0891 23.7698 28.9429 23.8289 28.7697 23.8532C28.5965 23.8776 28.4081 23.8606 28.2044 23.8023C27.937 23.7257 27.7322 23.6044 27.5902 23.4381C27.4481 23.2719 27.3857 23.0706 27.4029 22.8342L27.8126 22.848C27.8086 22.9995 27.8472 23.1251 27.9283 23.2246C28.0105 23.3245 28.1342 23.398 28.2992 23.4453C28.4869 23.499 28.6474 23.5018 28.7806 23.4537C28.9153 23.4049 28.9987 23.3241 29.031 23.2114C29.057 23.1204 29.047 23.035 29.0008 22.9553C28.955 22.8745 28.8705 22.7998 28.7473 22.7313L28.3396 22.5038C28.1157 22.3782 27.9646 22.2395 27.8861 22.0878C27.8091 21.9353 27.7965 21.7685 27.8483 21.5876C27.8906 21.4396 27.9696 21.3206 28.0852 21.2306C28.202 21.1409 28.3419 21.0843 28.505 21.0608C28.6693 21.0376 28.8436 21.0524 29.0279 21.1052C29.2874 21.1794 29.4748 21.2946 29.5902 21.4507C29.7067 21.6072 29.7696 21.7877 29.7787 21.9923Z" fill="#6BCAFF"/>
<path d="M50.4463 36.2292L50.8899 34.6792L51.2927 34.7945L50.5424 37.4165L50.1395 37.3012L50.2665 36.8574L50.2392 36.8496C50.1397 36.9651 50.0117 37.051 49.8552 37.1072C49.6991 37.1622 49.522 37.1614 49.324 37.1048C49.1601 37.0579 49.0247 36.9803 48.9178 36.8722C48.8112 36.7629 48.7423 36.625 48.7111 36.4584C48.6803 36.2908 48.6968 36.0954 48.7607 35.8724L49.2374 34.2063L49.6403 34.3216L49.1713 35.9604C49.1166 36.1515 49.1265 36.3194 49.2009 36.4638C49.2764 36.6085 49.3978 36.7048 49.5651 36.7527C49.6653 36.7813 49.7745 36.7849 49.8927 36.7633C50.012 36.7421 50.1221 36.6886 50.223 36.603C50.325 36.5176 50.3994 36.393 50.4463 36.2292Z" fill="#6BCAFF"/>
<path d="M35.3601 24.7508L36.3606 21.2547L36.7634 21.37L36.3941 22.6605L36.4283 22.6703C36.4709 22.6333 36.5284 22.5869 36.601 22.5314C36.675 22.475 36.7695 22.4331 36.8844 22.4056C37.0009 22.3774 37.1444 22.3877 37.3151 22.4365C37.5359 22.4997 37.7147 22.6106 37.8516 22.7692C37.9884 22.9278 38.0751 23.1219 38.1116 23.3515C38.1481 23.5811 38.1269 23.8336 38.0481 24.109C37.9686 24.3867 37.8525 24.6138 37.6998 24.7905C37.5473 24.9661 37.3715 25.0857 37.1723 25.1493C36.9734 25.2118 36.7647 25.2118 36.5462 25.1493C36.3778 25.1011 36.2509 25.0346 36.1656 24.9499C36.0806 24.864 36.0211 24.7774 35.9869 24.6901C35.9532 24.6016 35.9283 24.5292 35.9124 24.473L35.8646 24.4593L35.7493 24.8621L35.3601 24.7508ZM36.1313 23.5531C36.0746 23.7511 36.0537 23.9341 36.0684 24.1021C36.0835 24.2689 36.1345 24.4109 36.2216 24.5282C36.3091 24.6443 36.4336 24.7255 36.5952 24.7718C36.7636 24.82 36.9169 24.8158 37.0549 24.7593C37.1945 24.7019 37.3143 24.6057 37.4145 24.4707C37.5162 24.3348 37.5938 24.1735 37.6472 23.9869C37.6999 23.8025 37.719 23.6282 37.7045 23.464C37.6914 23.2989 37.6403 23.1569 37.5512 23.0378C37.4636 22.918 37.3345 22.8336 37.1638 22.7848C36.9999 22.7379 36.8503 22.74 36.715 22.7912C36.58 22.8412 36.4629 22.932 36.3637 23.0637C36.2648 23.1942 36.1873 23.3573 36.1313 23.5531Z" fill="#6BCAFF"/>
<path d="M36.4033 14.1153L35.4029 17.6113L35 17.496L36.0005 14L36.4033 14.1153Z" fill="#6BCAFF"/>
<path d="M20 33.622L20.7503 31L21.1395 31.1114L21.0223 31.5211L21.0564 31.5309C21.1511 31.4065 21.2704 31.3231 21.4143 31.2805C21.5586 31.2368 21.7161 31.2394 21.8868 31.2883C22.0597 31.3378 22.1925 31.4182 22.2849 31.5297C22.3789 31.6403 22.4382 31.7748 22.4631 31.9334L22.4904 31.9412C22.5963 31.825 22.7278 31.7463 22.8848 31.705C23.0423 31.6627 23.2148 31.6683 23.4026 31.7221C23.6371 31.7892 23.8078 31.9174 23.9149 32.1069C24.0223 32.2952 24.0318 32.5436 23.9436 32.852L23.4414 34.6069L23.0386 34.4916L23.5407 32.7367C23.5961 32.5433 23.5827 32.3898 23.5007 32.2765C23.4186 32.1631 23.3059 32.0859 23.1625 32.0449C22.9781 31.9921 22.8194 32.007 22.6862 32.0896C22.5533 32.171 22.4626 32.2965 22.4141 32.466L21.9256 34.1731L21.5159 34.0558L22.0298 32.26C22.0724 32.1109 22.0584 31.977 21.9877 31.8583C21.9174 31.7384 21.806 31.6567 21.6535 31.6131C21.5488 31.5831 21.4429 31.583 21.3359 31.6127C21.2301 31.6427 21.1351 31.6993 21.051 31.7823C20.9683 31.8645 20.9086 31.97 20.8718 32.0986L20.4029 33.7373L20 33.622Z" fill="#6BCAFF"/>
<path d="M33.1695 39.7514L33.4918 39.8437L32.8478 42.0942C32.8108 42.2235 32.7564 42.3291 32.6847 42.411C32.6139 42.4932 32.5265 42.5475 32.4224 42.5738C32.3193 42.6005 32.2003 42.5945 32.0656 42.5559C32.0547 42.5528 32.0437 42.5497 32.0328 42.5466C32.0219 42.5434 32.011 42.5403 32 42.5372L32.086 42.2367C32.0969 42.2399 32.1069 42.2427 32.1161 42.2453C32.1252 42.2479 32.1352 42.2508 32.1461 42.2539C32.2444 42.2821 32.3247 42.2735 32.3869 42.2283C32.4488 42.1839 32.495 42.1085 32.5255 42.002L33.1695 39.7514ZM33.428 39.4472C33.3652 39.4292 33.3171 39.3923 33.2838 39.3365C33.2515 39.2809 33.2439 39.2231 33.2611 39.163C33.2783 39.1029 33.3153 39.0579 33.3722 39.0278C33.4299 38.9981 33.4902 38.9922 33.553 39.0102C33.6159 39.0281 33.6635 39.0649 33.6958 39.1205C33.7291 39.1763 33.7371 39.2342 33.7199 39.2943C33.7028 39.3544 33.6653 39.3993 33.6075 39.4291C33.5506 39.4591 33.4908 39.4651 33.428 39.4472Z" fill="#6BCAFF"/>
<path d="M30 2.8475L30.6003 0.749898L30.9226 0.842097L30.3223 2.9398L30 2.8475ZM30.8642 0.447198C30.8014 0.429198 30.7534 0.392297 30.7201 0.336497C30.6877 0.280997 30.6801 0.223097 30.6973 0.163097C30.7145 0.102997 30.7515 0.057898 30.8084 0.027898C30.8662 -0.00190198 30.9265 -0.00780217 30.9893 0.0101978C31.0521 0.0281978 31.0997 0.0648979 31.1321 0.120498C31.1653 0.176298 31.1734 0.234297 31.1562 0.294397C31.139 0.354397 31.1015 0.399397 31.0437 0.429097C30.9869 0.459197 30.927 0.465198 30.8642 0.447198Z" fill="#6BCAFF"/>
<path d="M19.0427 7.60209C18.8481 7.54639 18.6879 7.47349 18.5623 7.38339C18.4363 7.29439 18.3382 7.19609 18.268 7.08859C18.1986 6.98259 18.1497 6.87619 18.1211 6.76949L18.5065 6.63609C18.5292 6.69429 18.5597 6.76209 18.5979 6.83949C18.6357 6.91799 18.6965 6.99389 18.7802 7.06709C18.8647 7.14179 18.9861 7.20179 19.1443 7.24699C19.3559 7.30759 19.5453 7.30639 19.7123 7.24339C19.8793 7.18029 19.9941 7.03959 20.0566 6.82109L20.209 6.28849L20.1749 6.27869C20.1316 6.31799 20.0726 6.36519 19.9977 6.42009C19.9244 6.47419 19.8293 6.51409 19.7123 6.53969C19.5969 6.56459 19.4538 6.55249 19.2831 6.50369C19.0714 6.44309 18.8957 6.33869 18.7559 6.19029C18.6173 6.04229 18.5264 5.85869 18.4832 5.63949C18.4412 5.42059 18.4593 5.17459 18.5375 4.90149C18.6143 4.63289 18.7285 4.41259 18.8799 4.24039C19.0317 4.06719 19.2074 3.94999 19.4071 3.88899C19.6071 3.82679 19.8175 3.82729 20.0383 3.89049C20.209 3.93929 20.3363 4.00649 20.4202 4.09209C20.5055 4.17679 20.5646 4.26269 20.5976 4.34969C20.632 4.43589 20.6575 4.50599 20.6741 4.55999L20.7151 4.57169L20.8343 4.15519L21.2235 4.26649L20.4516 6.96369C20.3872 7.18899 20.2835 7.35759 20.1407 7.46939C19.9987 7.58269 19.8324 7.64769 19.6416 7.66449C19.4517 7.68279 19.2521 7.66199 19.0427 7.60209ZM19.4413 6.15739C19.6029 6.20369 19.75 6.20579 19.8827 6.16369C20.0154 6.12169 20.1307 6.03949 20.2284 5.91729C20.3262 5.79509 20.4028 5.63719 20.4581 5.44369C20.5122 5.25479 20.5314 5.07999 20.5159 4.91919C20.5004 4.75829 20.4486 4.62099 20.3605 4.50719C20.2724 4.39329 20.1464 4.31289 19.9825 4.26599C19.8118 4.21719 19.6572 4.21969 19.5187 4.27359C19.3812 4.32789 19.2632 4.41969 19.1646 4.54909C19.0672 4.67879 18.9931 4.83239 18.9423 5.00999C18.8902 5.19199 18.8725 5.36119 18.8894 5.51749C18.9077 5.67289 18.9618 5.80659 19.0516 5.91849C19.143 6.02959 19.2729 6.10919 19.4413 6.15739Z" fill="#6BCAFF"/>
<path d="M33.6966 2.97111C33.4945 2.91331 33.3329 2.81881 33.2119 2.68761C33.092 2.55581 33.0155 2.39801 32.9824 2.21421C32.9505 2.02971 32.9653 1.83011 33.0268 1.61521C33.0883 1.40031 33.1816 1.22221 33.3068 1.08071C33.4331 0.93861 33.58 0.841709 33.7475 0.790209C33.9161 0.737909 34.0951 0.73891 34.2844 0.79311C34.3937 0.82441 34.4964 0.873509 34.5924 0.940409C34.6885 1.00731 34.7686 1.09421 34.8325 1.20111C34.8967 1.30721 34.9356 1.43451 34.9492 1.58321C34.9628 1.73191 34.9416 1.90411 34.8856 2.09991L34.8465 2.23641L33.2296 1.77371L33.3093 1.49511L34.5985 1.86401C34.6324 1.74571 34.6389 1.63331 34.6182 1.52691C34.5983 1.42071 34.5528 1.32841 34.4817 1.25001C34.4115 1.17181 34.3181 1.11601 34.2016 1.08261C34.0732 1.04591 33.953 1.04601 33.841 1.08291C33.7302 1.11911 33.6352 1.18061 33.5563 1.26731C33.4773 1.35411 33.4212 1.45521 33.3881 1.57091L33.335 1.75661C33.2897 1.91501 33.2785 2.05711 33.3016 2.18291C33.3259 2.30801 33.379 2.41341 33.4609 2.49891C33.5431 2.58341 33.6493 2.64441 33.7795 2.68161C33.8641 2.70591 33.944 2.71591 34.0191 2.71181C34.0953 2.70701 34.1653 2.68761 34.2292 2.65371C34.2934 2.61891 34.3495 2.56901 34.3977 2.50391L34.684 2.68041C34.621 2.77671 34.5394 2.85381 34.4391 2.91171C34.339 2.96881 34.2257 3.00341 34.0991 3.01541C33.9728 3.02651 33.8386 3.01181 33.6966 2.97111Z" fill="#6BCAFF"/>
<path d="M42.5218 2.68791L42.4436 2.96101L41.3566 2.64991L41.4347 2.37681L42.5218 2.68791ZM41.8954 1.9649L42.2177 2.05711L41.6455 4.05641C41.6195 4.14751 41.6132 4.21951 41.6265 4.27261C41.6411 4.32502 41.6671 4.36501 41.7045 4.39241C41.7431 4.41921 41.7861 4.4394 41.8335 4.453C41.869 4.4631 41.8986 4.46961 41.9224 4.47251C41.9465 4.47451 41.9657 4.47601 41.9802 4.47721L41.9629 4.78551C41.9387 4.78741 41.9058 4.78691 41.8644 4.78391C41.8226 4.78181 41.7717 4.7721 41.7116 4.755C41.6206 4.7289 41.5369 4.68381 41.4607 4.61961C41.3854 4.55571 41.3306 4.47551 41.2962 4.37901C41.2626 4.28272 41.2633 4.17361 41.2982 4.05161L41.8954 1.9649Z" fill="#6BCAFF"/>
<path d="M61.702 25.7121C61.5359 25.6646 61.394 25.5902 61.2765 25.4888C61.1593 25.3863 61.078 25.2639 61.0325 25.1216C60.9874 24.9782 60.9893 24.8211 61.0381 24.6504C61.0811 24.5002 61.1455 24.3869 61.2314 24.3105C61.3176 24.233 61.4179 24.1817 61.5322 24.1565C61.6465 24.1314 61.7672 24.1228 61.8941 24.1308C62.0226 24.138 62.15 24.1511 62.2763 24.17C62.4415 24.1951 62.5751 24.2167 62.677 24.2348C62.7804 24.2521 62.8586 24.2541 62.9116 24.241C62.9658 24.2282 63.0021 24.1893 63.0207 24.1245L63.0246 24.1108C63.0728 23.9424 63.0642 23.7983 62.9987 23.6786C62.9343 23.5592 62.8094 23.473 62.6239 23.4199C62.4316 23.3649 62.2688 23.3638 62.1354 23.4168C62.0021 23.4698 61.8995 23.5377 61.8278 23.6206L61.4845 23.3746C61.5983 23.2348 61.7249 23.1368 61.8641 23.0806C62.0048 23.0236 62.1479 22.9968 62.2934 23.0003C62.4404 23.003 62.5799 23.0232 62.7119 23.061C62.7961 23.0851 62.8899 23.123 62.9933 23.1747C63.0981 23.2257 63.193 23.2965 63.2778 23.3873C63.3638 23.4784 63.4232 23.5957 63.456 23.7393C63.4887 23.8829 63.4753 24.0588 63.4157 24.2671L62.9214 25.9946L62.5185 25.8793L62.6201 25.5242L62.5996 25.5184C62.556 25.5675 62.4931 25.6153 62.4108 25.662C62.3285 25.7086 62.2279 25.7395 62.1091 25.7548C61.9902 25.77 61.8545 25.7558 61.702 25.7121ZM61.867 25.3678C62.0264 25.4134 62.1696 25.4206 62.2968 25.3892C62.4251 25.3582 62.5313 25.3012 62.6154 25.2181C62.7006 25.1354 62.7589 25.0394 62.7901 24.9302L62.8956 24.5615C62.8727 24.5771 62.8298 24.5851 62.7668 24.5856C62.7054 24.5852 62.6353 24.5805 62.5566 24.5716C62.4794 24.5618 62.4042 24.5513 62.331 24.5403C62.2593 24.5284 62.201 24.5191 62.1562 24.5124C62.0476 24.4961 61.9433 24.4903 61.8435 24.4949C61.7451 24.4988 61.6594 24.5229 61.5864 24.5673C61.5149 24.6108 61.4644 24.6838 61.4351 24.7862C61.3951 24.9262 61.4165 25.0468 61.4996 25.1482C61.5841 25.2487 61.7066 25.3219 61.867 25.3678Z" fill="#6BCAFF"/>
<path d="M61.8542 37.16L61.4028 38.7373L61 38.622L61.7503 36L62.1395 36.1114L62.0223 36.5211L62.0564 36.5308C62.156 36.4153 62.2799 36.335 62.4282 36.29C62.5768 36.2439 62.7502 36.2492 62.9482 36.3059C63.1257 36.3567 63.2706 36.4375 63.3829 36.5485C63.4956 36.6583 63.5679 36.7971 63.5998 36.9651C63.6321 37.132 63.6163 37.3269 63.5525 37.55L63.0757 39.216L62.6729 39.1007L63.1418 37.462C63.2008 37.256 63.1932 37.0802 63.1191 36.9347C63.0454 36.788 62.9152 36.6879 62.7285 36.6345C62.5999 36.5977 62.477 36.5927 62.3598 36.6195C62.2437 36.6466 62.1413 36.7053 62.0526 36.7957C61.964 36.8861 61.8978 37.0075 61.8542 37.16Z" fill="#6BCAFF"/>
<path d="M38.0067 1.1901C38.1511 1.0951 38.3011 1.0352 38.4568 1.0106C38.6132 0.986999 38.7623 1.0028 38.9041 1.0581C39.0467 1.1143 39.1698 1.2145 39.2735 1.3586C39.3648 1.4854 39.4131 1.6051 39.4184 1.7177C39.4244 1.8313 39.4007 1.939 39.3472 2.0408C39.2937 2.1425 39.223 2.2386 39.1351 2.3291C39.0469 2.4211 38.9547 2.5087 38.8586 2.5918C38.7326 2.7002 38.6297 2.7871 38.55 2.8523C38.4699 2.9192 38.418 2.9767 38.3944 3.0249C38.3697 3.0736 38.3771 3.1254 38.4166 3.1802L38.4249 3.1917C38.5272 3.3339 38.6468 3.418 38.7836 3.444C38.9194 3.4707 39.0679 3.431 39.2291 3.3249C39.3961 3.2149 39.5016 3.0931 39.5453 2.9596C39.589 2.826 39.6011 2.7062 39.5816 2.6001L39.9968 2.4967C40.0343 2.6702 40.0306 2.827 39.9857 2.967C39.9404 3.1086 39.8697 3.2331 39.7735 3.3403C39.677 3.4491 39.5714 3.5413 39.4567 3.6168C39.3836 3.665 39.2933 3.7117 39.1859 3.7569C39.0783 3.8037 38.9613 3.8304 38.8349 3.8371C38.7076 3.8445 38.5766 3.8153 38.4419 3.7497C38.3072 3.684 38.1765 3.5633 38.05 3.3875L37 1.9293L37.35 1.6989L37.5658 1.9986L37.5836 1.9869C37.5728 1.9232 37.5753 1.8458 37.5912 1.7546C37.6072 1.6634 37.6473 1.5683 37.7116 1.4694C37.7759 1.3704 37.8742 1.2773 38.0067 1.1901ZM38.1733 1.5307C38.0349 1.6218 37.9372 1.7251 37.8804 1.8404C37.8225 1.9564 37.7994 2.0721 37.8112 2.1875C37.8219 2.3037 37.8605 2.4078 37.9269 2.5L38.151 2.8113C38.1533 2.7842 38.1746 2.7469 38.2146 2.6993C38.2544 2.6533 38.3031 2.6035 38.3607 2.55C38.4181 2.4981 38.4746 2.4481 38.5304 2.4001C38.5858 2.3537 38.6306 2.3157 38.6647 2.2861C38.7474 2.2147 38.8189 2.14 38.8794 2.062C38.9395 1.9856 38.9754 1.906 38.9872 1.8232C38.9987 1.742 38.9733 1.6582 38.9111 1.5717C38.826 1.4536 38.7167 1.3939 38.5832 1.3926C38.4493 1.3929 38.3127 1.4389 38.1733 1.5307Z" fill="#6BCAFF"/>
<path d="M10 26.622L10.7503 24L11.1395 24.1114L11.0223 24.521L11.0565 24.5308C11.1511 24.4065 11.2704 24.323 11.4143 24.2805C11.5586 24.2368 11.7161 24.2394 11.8868 24.2882C12.0597 24.3377 12.1925 24.4182 12.2849 24.5296C12.3789 24.6402 12.4382 24.7748 12.4631 24.9333L12.4904 24.9412C12.5963 24.8249 12.7278 24.7462 12.8848 24.705C13.0423 24.6626 13.2148 24.6683 13.4026 24.722C13.6371 24.7891 13.8078 24.9174 13.9149 25.1069C14.0223 25.2952 14.0319 25.5436 13.9436 25.852L13.4414 27.6068L13.0386 27.4915L13.5407 25.7367C13.5961 25.5432 13.5827 25.3898 13.5007 25.2764C13.4186 25.1631 13.3059 25.0859 13.1625 25.0448C12.9781 24.9921 12.8194 25.007 12.6862 25.0895C12.5533 25.1709 12.4626 25.2964 12.4141 25.466L11.9256 27.173L11.5159 27.0558L12.0298 25.26C12.0724 25.1109 12.0584 24.977 11.9877 24.8583C11.9174 24.7384 11.806 24.6567 11.6535 24.613C11.5488 24.5831 11.4429 24.5829 11.3359 24.6126C11.2301 24.6427 11.1351 24.6992 11.051 24.7823C10.9683 24.8645 10.9086 24.9699 10.8718 25.0985L10.4029 26.7373L10 26.622Z" fill="#6BCAFF"/>
<path d="M59.4086 7.6015L59.448 7.9544L58.0395 8.0705L58 7.7176L59.4086 7.6015ZM58.338 7.0344L58.7556 7L59.0443 9.5833C59.0574 9.7009 59.0844 9.7878 59.1252 9.8438C59.167 9.8985 59.2162 9.9336 59.2727 9.9491C59.3302 9.9634 59.3897 9.968 59.451 9.9629C59.497 9.9592 59.5345 9.9537 59.5635 9.9466C59.5923 9.9382 59.6154 9.9316 59.6327 9.9266L59.7594 10.2937C59.7323 10.3066 59.694 10.3205 59.6444 10.3352C59.595 10.3512 59.5314 10.3624 59.4535 10.3688C59.3355 10.3785 59.2171 10.3627 59.0982 10.3215C58.9805 10.2801 58.8787 10.2107 58.7928 10.1134C58.7081 10.0159 58.6569 9.8883 58.6393 9.7307L58.338 7.0344Z" fill="#6BCAFF"/>
<path d="M47.1416 13.7498L46.8388 11.0394L47.2564 11.005L47.5592 13.7154L47.1416 13.7498ZM47.0006 10.5701C46.9192 10.5768 46.8459 10.555 46.7808 10.5046C46.7168 10.454 46.6805 10.3899 46.6718 10.3123C46.6631 10.2347 46.6846 10.1658 46.7362 10.1058C46.789 10.0456 46.8561 10.0122 46.9375 10.0055C47.0189 9.99882 47.0916 10.0207 47.1556 10.0712C47.2208 10.1216 47.2577 10.1857 47.2664 10.2633C47.275 10.3409 47.253 10.4098 47.2002 10.47C47.1485 10.53 47.082 10.5634 47.0006 10.5701Z" fill="#6BCAFF"/>
<path d="M52.2731 3.98861L52.3125 4.34151L50.8473 4.46221L50.8079 4.10931L52.2731 3.98861ZM51.5496 6.78361L51.2049 3.69911C51.1876 3.54381 51.2097 3.41141 51.2713 3.30181C51.3328 3.19231 51.4191 3.10681 51.5301 3.04541C51.6411 2.98401 51.7615 2.94801 51.8913 2.93731C51.9939 2.92881 52.0786 2.93021 52.1453 2.94131C52.2121 2.95241 52.2621 2.96371 52.2956 2.97521L52.2155 3.34511C52.1934 3.33981 52.163 3.33341 52.124 3.32591C52.0863 3.31841 52.0373 3.31711 51.9771 3.32201C51.8391 3.33341 51.7433 3.37631 51.6897 3.45081C51.6373 3.52511 51.6186 3.62941 51.6336 3.76351L51.9672 6.74921L51.5496 6.78361Z" fill="#6BCAFF"/>
<path d="M22.8772 5.76401C22.6405 5.69631 22.449 5.58051 22.3025 5.41671C22.1572 5.25321 22.0635 5.05591 22.0213 4.82461C21.9803 4.59371 21.9985 4.34291 22.076 4.07201C22.1542 3.79891 22.2719 3.57461 22.4292 3.39931C22.5876 3.22421 22.7717 3.10581 22.9815 3.04391C23.1924 2.98241 23.4163 2.98551 23.653 3.05321C23.8897 3.12091 24.0807 3.23651 24.226 3.40001C24.3724 3.56381 24.466 3.76171 24.5067 3.99381C24.5485 4.22611 24.5304 4.47891 24.4522 4.75201C24.3747 5.02291 24.2569 5.24521 24.0988 5.41911C23.9418 5.59341 23.7579 5.71131 23.547 5.77281C23.3372 5.83471 23.1139 5.83171 22.8772 5.76401ZM22.9808 5.40211C23.1606 5.45361 23.3217 5.44981 23.4642 5.39081C23.6067 5.33191 23.7273 5.23531 23.826 5.10101C23.9248 4.96671 23.9992 4.81201 24.0494 4.63671C24.0995 4.46151 24.1184 4.29021 24.1059 4.12291C24.0935 3.95551 24.0426 3.80861 23.9532 3.68211C23.8638 3.55551 23.7292 3.46651 23.5494 3.41511C23.3696 3.36361 23.2083 3.36801 23.0655 3.42811C22.9227 3.48821 22.8018 3.58591 22.7027 3.72131C22.6036 3.85671 22.529 4.01201 22.4789 4.18731C22.4287 4.36261 22.41 4.53331 22.4228 4.69951C22.4356 4.86561 22.4868 5.01141 22.5765 5.13681C22.6662 5.26221 22.801 5.35061 22.9808 5.40211Z" fill="#6BCAFF"/>
<path d="M9.87719 14.764C9.64049 14.6963 9.44899 14.5805 9.30249 14.4167C9.15719 14.2532 9.06349 14.0559 9.02129 13.8246C8.98029 13.5937 8.99849 13.3429 9.07599 13.072C9.15419 12.7989 9.27189 12.5746 9.42919 12.3993C9.58759 12.2242 9.77169 12.1058 9.98149 12.0439C10.1924 11.9824 10.4163 11.9855 10.653 12.0532C10.8897 12.1209 11.0807 12.2365 11.226 12.4C11.3724 12.5638 11.466 12.7617 11.5067 12.9938C11.5485 13.2261 11.5304 13.4789 11.4522 13.752C11.3747 14.0229 11.2569 14.2452 11.0988 14.4191C10.9418 14.5934 10.7579 14.7113 10.547 14.7728C10.3372 14.8347 10.1139 14.8317 9.87719 14.764ZM9.98079 14.4021C10.1606 14.4536 10.3217 14.4498 10.4642 14.3908C10.6067 14.3319 10.7273 14.2353 10.826 14.101C10.9248 13.9667 10.9992 13.812 11.0494 13.6367C11.0995 13.4615 11.1184 13.2902 11.1059 13.1229C11.0935 12.9555 11.0426 12.8086 10.9532 12.6821C10.8638 12.5555 10.7292 12.4665 10.5494 12.4151C10.3696 12.3636 10.2083 12.368 10.0655 12.4281C9.92269 12.4882 9.80179 12.5859 9.70269 12.7213C9.60359 12.8567 9.52899 13.012 9.47889 13.1873C9.42869 13.3626 9.40999 13.5333 9.42279 13.6995C9.43559 13.8656 9.48679 14.0114 9.57649 14.1368C9.66619 14.2622 9.80099 14.3506 9.98079 14.4021Z" fill="#6BCAFF"/>
<path d="M40.4164 10.8687L40 7.14191L40.4034 7.10861L40.4516 7.53921L40.5011 7.53511C40.5265 7.48551 40.5623 7.42201 40.6084 7.34461C40.6556 7.26591 40.7272 7.19351 40.8234 7.12741C40.9207 7.06011 41.0578 7.01911 41.2347 7.00451C41.4636 6.98561 41.6717 7.02611 41.8591 7.12581C42.0464 7.22551 42.2007 7.37601 42.3221 7.57741C42.4434 7.77871 42.5199 8.02171 42.5517 8.30641C42.5838 8.59341 42.5627 8.84631 42.4883 9.06491C42.4138 9.28241 42.2962 9.45591 42.1357 9.58551C41.975 9.71391 41.7815 9.78741 41.5549 9.80611C41.3804 9.82051 41.2373 9.80321 41.1259 9.75421C41.0143 9.70401 40.9261 9.64421 40.8612 9.57471C40.7961 9.50411 40.7455 9.44541 40.7093 9.39851L40.6739 9.40141L40.8341 10.8342L40.4164 10.8687ZM40.562 8.46321C40.5848 8.66791 40.6351 8.84601 40.7127 8.99751C40.7903 9.14781 40.8918 9.26241 41.0172 9.34111C41.1426 9.41861 41.289 9.45041 41.4565 9.43661C41.6311 9.42231 41.7717 9.36441 41.8782 9.26301C41.9858 9.16031 42.0604 9.02831 42.1019 8.86701C42.1444 8.70441 42.1549 8.52671 42.1333 8.33371C42.112 8.14321 42.0634 7.97381 41.9873 7.82581C41.9123 7.67641 41.8108 7.56191 41.6828 7.48221C41.5559 7.40131 41.404 7.36811 41.227 7.38271C41.0571 7.39671 40.9192 7.45141 40.8132 7.54681C40.707 7.64101 40.633 7.76701 40.5911 7.92481C40.5491 8.08141 40.5394 8.26091 40.562 8.46321Z" fill="#6BCAFF"/>
<path d="M6.08765 22.2886L6.83805 19.6665L7.22725 19.7779L7.11385 20.174L7.14115 20.1818C7.22615 20.0657 7.34275 19.9852 7.49105 19.9402C7.63935 19.8952 7.79205 19.8952 7.94905 19.9402C7.97865 19.9486 8.01545 19.9598 8.05955 19.9736C8.10355 19.9875 8.13665 19.9988 8.15875 20.0076L8.04155 20.4173C8.02885 20.4099 7.99905 20.3959 7.95205 20.375C7.90655 20.3534 7.85705 20.3349 7.80355 20.3196C7.67605 20.2831 7.55465 20.2773 7.43915 20.3021C7.32515 20.3262 7.22585 20.3765 7.14105 20.4532C7.05775 20.5291 6.99925 20.6263 6.96535 20.7446L6.49055 22.4039L6.08765 22.2886Z" fill="#6BCAFF"/>
<path d="M44.0486 17.8507L44 15L44.4234 15.1212L44.4156 17.2908L44.4429 17.2987L45.5773 15.4514L46.0075 15.5745L45.9881 17.7334L46.0154 17.7413L47.1546 15.9028L47.578 16.0239L46.0287 18.4173L45.6327 18.304L45.6356 16.1255L45.5946 16.1138L44.4446 17.964L44.0486 17.8507Z" fill="#6BCAFF"/>
<path d="M18.9377 24.5422L18.8791 24.7471L18.0638 24.5138L18.1224 24.3089L18.9377 24.5422ZM18.4679 24L18.7096 24.0692L18.2805 25.5686C18.2609 25.6369 18.2562 25.691 18.2662 25.7308C18.2771 25.7701 18.2966 25.8001 18.3247 25.8206C18.3537 25.8408 18.3859 25.8559 18.4214 25.8661C18.4481 25.8737 18.4703 25.8786 18.4882 25.8807C18.5062 25.8822 18.5206 25.8834 18.5315 25.8842L18.5185 26.1155C18.5004 26.1169 18.4757 26.1165 18.4446 26.1142C18.4133 26.1127 18.3751 26.1054 18.33 26.0925C18.2617 26.073 18.199 26.0392 18.1419 25.9911C18.0854 25.9431 18.0443 25.883 18.0184 25.8106C17.9933 25.7384 17.9938 25.6565 18.02 25.565L18.4679 24Z" fill="#6BCAFF"/>
<path d="M36.3684 11.4006L36.3206 11.1494L37.2472 9.3958L37.2429 9.3735L36.0584 9.5581L36 9.2511L37.6112 9L37.6611 9.2623L36.7661 10.9996L36.7704 11.0219L37.9998 10.8303L38.0582 11.1372L36.3684 11.4006Z" fill="#6BCAFF"/>
<path d="M25.0486 3.8506L25 1L25.4234 1.1211L25.4157 3.2908L25.443 3.2986L26.5774 1.4513L27.0075 1.5744L26.9881 3.7334L27.0154 3.7412L28.1547 1.9027L28.578 2.0239L27.0288 4.4173L26.6328 4.3039L26.6356 2.1255L26.5946 2.1138L25.4447 3.9639L25.0486 3.8506Z" fill="#6BCAFF"/>
<path d="M61.4915 18.0687C61.5574 18.0422 61.6186 18.0241 61.6751 18.0142C61.7311 18.0032 61.7712 17.9986 61.7953 18.0003L61.848 18.3768C61.7429 18.3909 61.6555 18.4157 61.5859 18.4513C61.5163 18.4868 61.4663 18.5445 61.4361 18.6241C61.4042 18.7032 61.3931 18.8153 61.4027 18.9605L61.4176 19.1839L63.4791 21.3084L63.0572 21.4776L61.4663 19.776L61.4399 19.7866L61.6333 22.0485L61.2114 22.2176L61.0031 18.9372C60.9936 18.7894 61.0056 18.6591 61.0392 18.5463C61.0722 18.4324 61.1267 18.336 61.2027 18.2571C61.2777 18.1786 61.3739 18.1158 61.4915 18.0687Z" fill="#6BCAFF"/>
<path d="M55.029 8.08751C54.8105 8.02491 54.6334 7.91451 54.4977 7.75631C54.3623 7.59691 54.2764 7.40241 54.2399 7.17281C54.2037 6.94211 54.2254 6.68781 54.3048 6.41021C54.3836 6.13481 54.4993 5.90931 54.6517 5.73371C54.8041 5.55821 54.9803 5.43931 55.1803 5.37711C55.3804 5.31501 55.5908 5.31551 55.8115 5.37861C55.9822 5.42751 56.109 5.49451 56.1917 5.57981C56.2759 5.66421 56.3339 5.74971 56.3657 5.83641C56.399 5.92231 56.4239 5.99221 56.4405 6.04621L56.4746 6.05601L56.8439 4.76541L57.2468 4.88071L56.2464 8.37671L55.8572 8.26541L55.9725 7.86251L55.9247 7.84881C55.8814 7.88821 55.822 7.93641 55.7466 7.99361C55.6714 8.04971 55.5751 8.09171 55.4575 8.11961C55.3402 8.14641 55.1974 8.13571 55.029 8.08751ZM55.1872 7.74121C55.3488 7.78751 55.4974 7.78441 55.633 7.73211C55.769 7.67871 55.8874 7.58521 55.9885 7.45161C56.0898 7.31681 56.1688 7.15041 56.2255 6.95241C56.2815 6.75671 56.3021 6.57721 56.2872 6.41421C56.2726 6.24991 56.2213 6.11091 56.1332 5.99701C56.0455 5.88201 55.9196 5.80111 55.7558 5.75421C55.5851 5.70541 55.4303 5.70851 55.2914 5.76351C55.154 5.81781 55.0355 5.91131 54.9359 6.04411C54.8378 6.17611 54.7624 6.33431 54.7096 6.51861C54.6562 6.70531 54.6362 6.88301 54.6494 7.05171C54.6641 7.21971 54.715 7.36481 54.8019 7.48691C54.8903 7.60821 55.0187 7.69301 55.1872 7.74121Z" fill="#6BCAFF"/>
<path d="M46.4235 6.78569L46.4628 7.13859L44.9977 7.25939L44.9583 6.90649L46.4235 6.78569ZM45.7 9.58069L45.3553 6.49619C45.338 6.34089 45.36 6.20849 45.4216 6.09899C45.4831 5.98939 45.5695 5.90389 45.6805 5.84259C45.7916 5.78119 45.9118 5.74509 46.0416 5.73439C46.1442 5.72599 46.229 5.72729 46.2957 5.73839C46.3625 5.74959 46.4124 5.76089 46.4459 5.77239L46.3658 6.14219C46.3438 6.13689 46.3133 6.13049 46.2743 6.12309C46.2366 6.11549 46.1877 6.11419 46.1276 6.11909C45.9895 6.13049 45.8936 6.17339 45.84 6.24789C45.7876 6.32229 45.769 6.42649 45.784 6.56059L46.1175 9.54629L45.7 9.58069Z" fill="#6BCAFF"/>
<path d="M50.8061 10.3221C50.5876 10.2596 50.4105 10.1492 50.2748 9.9909C50.1394 9.8315 50.0535 9.637 50.017 9.4074C49.9808 9.1767 50.0025 8.9225 50.0819 8.6448C50.1607 8.3694 50.2763 8.1439 50.4288 7.9684C50.5812 7.7928 50.7574 7.6739 50.9574 7.6118C51.1574 7.5496 51.3678 7.5501 51.5886 7.6132C51.7593 7.6621 51.886 7.7291 51.9688 7.8144C52.053 7.8988 52.111 7.9843 52.1428 8.071C52.1761 8.1569 52.201 8.2268 52.2176 8.2808L52.2517 8.2906L52.621 7L53.0239 7.1153L52.0235 10.6114L51.6343 10.5L51.7495 10.0971L51.7017 10.0834C51.6585 10.1228 51.5991 10.171 51.5236 10.2282C51.4485 10.2843 51.3521 10.3263 51.2346 10.3542C51.1173 10.381 50.9745 10.3703 50.8061 10.3221ZM50.9643 9.9758C51.1259 10.0221 51.2745 10.019 51.4101 9.9667C51.546 9.9133 51.6645 9.8198 51.7656 9.6862C51.8669 9.5514 51.9459 9.385 52.0026 9.187C52.0586 8.9913 52.0792 8.8119 52.0643 8.6488C52.0497 8.4845 51.9984 8.3455 51.9103 8.2316C51.8226 8.1167 51.6967 8.0357 51.5329 7.9888C51.3622 7.94 51.2074 7.9431 51.0685 7.9981C50.9311 8.0524 50.8126 8.1459 50.713 8.2787C50.6149 8.4107 50.5395 8.5689 50.4867 8.7532C50.4333 8.9399 50.4132 9.1176 50.4265 9.2864C50.4412 9.4543 50.4921 9.5994 50.579 9.7215C50.6674 9.8429 50.7958 9.9276 50.9643 9.9758Z" fill="#6BCAFF"/>
<path d="M53.114 18.3926L52.8111 15.6822L53.2288 15.6478L53.5316 18.3582L53.114 18.3926ZM52.973 15.213C52.8916 15.2197 52.8183 15.1978 52.7532 15.1474C52.6892 15.0969 52.6528 15.0328 52.6442 14.9552C52.6355 14.8775 52.657 14.8087 52.7086 14.7486C52.7614 14.6885 52.8285 14.655 52.9099 14.6483C52.9913 14.6416 53.064 14.6635 53.128 14.7141C53.1931 14.7645 53.2301 14.8285 53.2387 14.9062C53.2474 14.9838 53.2254 15.0527 53.1725 15.1129C53.1209 15.1729 53.0544 15.2063 52.973 15.213Z" fill="#6BCAFF"/>
<path d="M56.2456 10.6314L56.285 10.9844L54.8198 11.1051L54.7803 10.7522L56.2456 10.6314ZM55.5221 13.4264L55.1774 10.3419C55.16 10.1866 55.1822 10.0542 55.2437 9.9447C55.3053 9.8351 55.3916 9.7497 55.5026 9.6883C55.6136 9.6269 55.734 9.5908 55.8638 9.5802C55.9664 9.5717 56.0511 9.573 56.1178 9.5842C56.1845 9.5953 56.2346 9.6066 56.268 9.6181L56.1879 9.988C56.1659 9.9827 56.1354 9.9763 56.0965 9.9688C56.0587 9.9612 56.0098 9.9599 55.9496 9.9649C55.8116 9.9762 55.7158 10.0192 55.6622 10.0936C55.6098 10.168 55.5911 10.2722 55.6061 10.4063L55.9397 13.392L55.5221 13.4264Z" fill="#6BCAFF"/>
<path d="M57.4619 14.9393L57.8648 15.0546L57.0597 17.8678C57.0135 18.0294 56.9455 18.1614 56.8559 18.2638C56.7674 18.3665 56.6581 18.4344 56.528 18.4673C56.3991 18.5006 56.2504 18.4931 56.082 18.4449C56.0683 18.441 56.0546 18.4371 56.041 18.4332C56.0273 18.4293 56.0137 18.4254 56 18.4215L56.1075 18.0459C56.1211 18.0498 56.1337 18.0534 56.145 18.0567C56.1564 18.0599 56.1689 18.0635 56.1826 18.0674C56.3055 18.1026 56.4058 18.0919 56.4836 18.0354C56.561 17.98 56.6188 17.8857 56.6569 17.7525L57.4619 14.9393ZM57.785 14.559C57.7064 14.5365 57.6464 14.4904 57.6048 14.4206C57.5643 14.3512 57.5548 14.2789 57.5763 14.2038C57.5978 14.1287 57.6441 14.0723 57.7152 14.0348C57.7874 13.9976 57.8628 13.9902 57.9413 14.0127C58.0198 14.0352 58.0793 14.0811 58.1198 14.1506C58.1614 14.2204 58.1714 14.2928 58.1499 14.3679C58.1284 14.443 58.0816 14.4992 58.0094 14.5364C57.9383 14.5739 57.8635 14.5814 57.785 14.559Z" fill="#6BCAFF"/>
<path d="M46.1562 26.8L46.9067 24.178L47.3094 24.2933L46.5592 26.9153L46.1562 26.8ZM47.2365 23.7996C47.1579 23.7772 47.098 23.731 47.0564 23.6613C47.0159 23.5918 47.0065 23.5196 47.028 23.4444C47.0495 23.3693 47.0956 23.313 47.1667 23.2755C47.2389 23.2383 47.3143 23.2309 47.3928 23.2534C47.4713 23.2759 47.5309 23.3218 47.5714 23.3913C47.613 23.461 47.6229 23.5335 47.6014 23.6086C47.5799 23.6837 47.5331 23.7398 47.4609 23.777C47.3898 23.8146 47.315 23.8221 47.2365 23.7996Z" fill="#6BCAFF"/>
<path d="M53.4033 36.1153L52.4029 39.6114L52 39.4961L53.0004 36L53.4033 36.1153Z" fill="#6BCAFF"/>
<path d="M59.4113 39.8203L59.3136 40.1617L57.9002 39.7573L57.9979 39.4158L59.4113 39.8203ZM57.6709 42.159L58.5248 39.1751C58.5678 39.0249 58.6389 38.9098 58.7381 38.8298C58.8373 38.7499 58.9504 38.701 59.0774 38.6831C59.2044 38.6653 59.3305 38.6743 59.4557 38.7101C59.5547 38.7385 59.6332 38.7696 59.6913 38.8034C59.7493 38.8372 59.7917 38.8654 59.8185 38.8878L59.6028 39.2029C59.5843 39.1902 59.5583 39.1735 59.5248 39.1528C59.4924 39.1325 59.4472 39.114 59.3892 39.0974C59.256 39.0593 59.1503 39.0654 59.0719 39.1156C58.9946 39.1661 58.9374 39.2562 58.9003 39.386L58.0738 42.2743L57.6709 42.159Z" fill="#6BCAFF"/>
<path d="M54.6091 41.2828L55.3595 38.6608L55.7623 38.7761L55.012 41.3981L54.6091 41.2828ZM55.6894 38.2824C55.6108 38.26 55.5508 38.2138 55.5092 38.1441C55.4687 38.0746 55.4592 38.0024 55.4807 37.9272C55.5022 37.8521 55.5485 37.7958 55.6196 37.7583C55.6918 37.7211 55.7672 37.7137 55.8457 37.7362C55.9242 37.7587 55.9837 37.8046 56.0242 37.8741C56.0658 37.9438 56.0758 38.0163 56.0543 38.0914C56.0328 38.1665 55.986 38.2226 55.9138 38.2598C55.8427 38.2974 55.7679 38.3049 55.6894 38.2824Z" fill="#6BCAFF"/>
<path d="M59.4033 27.1153L58.4029 30.6114L58 30.4961L59.0004 27L59.4033 27.1153Z" fill="#6BCAFF"/>
<path d="M65.4113 30.8203L65.3136 31.1617L63.9002 30.7573L63.9979 30.4158L65.4113 30.8203ZM63.6709 33.159L64.5248 30.1751C64.5678 30.0249 64.6389 29.9098 64.7381 29.8298C64.8373 29.7499 64.9504 29.701 65.0774 29.6831C65.2044 29.6653 65.3305 29.6743 65.4557 29.7101C65.5547 29.7385 65.6332 29.7696 65.6913 29.8034C65.7493 29.8372 65.7917 29.8654 65.8185 29.8878L65.6028 30.2029C65.5843 30.1902 65.5583 30.1735 65.5248 30.1528C65.4924 30.1325 65.4472 30.114 65.3892 30.0974C65.256 30.0593 65.1503 30.0654 65.0719 30.1156C64.9946 30.1661 64.9374 30.2562 64.9003 30.386L64.0738 33.2743L63.6709 33.159Z" fill="#6BCAFF"/>
<path d="M60.6091 32.2828L61.3595 29.6608L61.7623 29.7761L61.012 32.3981L60.6091 32.2828ZM61.6894 29.2824C61.6108 29.26 61.5508 29.2138 61.5092 29.1441C61.4687 29.0746 61.4592 29.0024 61.4807 28.9272C61.5022 28.8521 61.5485 28.7958 61.6196 28.7583C61.6918 28.7211 61.7672 28.7137 61.8457 28.7362C61.9242 28.7587 61.9837 28.8046 62.0242 28.8741C62.0658 28.9438 62.0758 29.0163 62.0543 29.0914C62.0328 29.1665 61.986 29.2226 61.9138 29.2598C61.8427 29.2974 61.7679 29.3049 61.6894 29.2824Z" fill="#6BCAFF"/>
<path d="M52.3339 20.5305L52.2362 20.8719L50.8228 20.4674L50.9205 20.126L52.3339 20.5305ZM50.5935 22.8692L51.4474 19.8852C51.4904 19.735 51.5615 19.6199 51.6607 19.54C51.7599 19.46 51.873 19.4111 52 19.3933C52.127 19.3755 52.2531 19.3845 52.3783 19.4203C52.4773 19.4486 52.5558 19.4797 52.6138 19.5135C52.6719 19.5474 52.7143 19.5755 52.7411 19.598L52.5254 19.913C52.5069 19.9003 52.4808 19.8836 52.4474 19.863C52.415 19.8426 52.3698 19.8242 52.3118 19.8076C52.1786 19.7695 52.0729 19.7755 51.9945 19.8257C51.9172 19.8763 51.86 19.9664 51.8229 20.0961L50.9964 22.9844L50.5935 22.8692Z" fill="#6BCAFF"/>
<path d="M52.4688 26.5498L53.5005 22.9445L53.8895 23.0559L53.7705 23.4724L53.8181 23.4861C53.8607 23.449 53.9183 23.4027 53.9908 23.3471C54.0648 23.2908 54.1593 23.2488 54.2743 23.2214C54.3907 23.1932 54.5345 23.2035 54.7052 23.2523C54.926 23.3155 55.1048 23.4264 55.2416 23.585C55.3784 23.7436 55.4649 23.9376 55.5014 24.1672C55.5379 24.3968 55.5168 24.6494 55.438 24.9248C55.3586 25.2024 55.2423 25.4296 55.0896 25.6063C54.9372 25.7818 54.7616 25.9014 54.5624 25.9651C54.3635 26.0276 54.1546 26.0276 53.9361 25.9651C53.7676 25.9169 53.6409 25.8504 53.5555 25.7656C53.4705 25.6798 53.411 25.5932 53.3769 25.5058C53.3431 25.4174 53.3181 25.345 53.3022 25.2887L53.2682 25.279L52.8714 26.6651L52.4688 26.5498ZM53.5211 24.3689C53.4645 24.5669 53.4437 24.7499 53.4584 24.9178C53.4735 25.0847 53.5244 25.2267 53.6115 25.344C53.6989 25.4601 53.8235 25.5413 53.9851 25.5875C54.1535 25.6357 54.3069 25.6316 54.445 25.575C54.5845 25.5177 54.7044 25.4215 54.8046 25.2864C54.9063 25.1505 54.9838 24.9893 55.0372 24.8026C55.09 24.6183 55.1089 24.444 55.0943 24.2798C55.0812 24.1147 55.0302 23.9727 54.9412 23.8536C54.8536 23.7337 54.7243 23.6494 54.5536 23.6005C54.3897 23.5536 54.2402 23.5558 54.1049 23.6069C53.9699 23.657 53.853 23.7478 53.7537 23.8795C53.6548 24.01 53.5772 24.1731 53.5211 24.3689Z" fill="#6BCAFF"/>
<path d="M9.75703 19.1754C9.51143 19.193 9.29013 19.1501 9.09313 19.0468C8.89723 18.9434 8.73683 18.7906 8.61193 18.5884C8.48823 18.3861 8.41233 18.1448 8.38423 17.8645C8.35593 17.5818 8.38253 17.3314 8.46413 17.1132C8.54693 16.8949 8.67453 16.7209 8.84703 16.5911C9.02073 16.4612 9.23033 16.3875 9.47593 16.3699C9.72153 16.3523 9.94223 16.3952 10.1381 16.4986C10.3351 16.6019 10.4956 16.7553 10.6194 16.9588C10.7445 17.1622 10.8211 17.4052 10.8495 17.6879C10.8775 17.9682 10.8501 18.2169 10.7673 18.434C10.6855 18.651 10.5578 18.8245 10.3842 18.9544C10.2117 19.0841 10.0026 19.1578 9.75703 19.1754ZM9.71953 18.8009C9.90603 18.7875 10.0548 18.7288 10.1656 18.6248C10.2765 18.5208 10.3531 18.389 10.3953 18.2293C10.4376 18.0697 10.4497 17.8992 10.4315 17.7178C10.4133 17.5365 10.3675 17.3695 10.2939 17.217C10.2204 17.0645 10.1185 16.9443 9.98843 16.8563C9.85833 16.7684 9.70003 16.7311 9.51343 16.7444C9.32693 16.7578 9.17823 16.8171 9.06753 16.9223C8.95673 17.0275 8.88033 17.1605 8.83813 17.3213C8.79603 17.4821 8.78403 17.6531 8.80213 17.8345C8.82033 18.0159 8.86613 18.1823 8.93963 18.3336C9.01303 18.4849 9.11473 18.604 9.24473 18.6908C9.37473 18.7775 9.53303 18.8142 9.71953 18.8009Z" fill="#6BCAFF"/>
<path d="M9.75703 19.1754C9.51143 19.193 9.29013 19.1501 9.09313 19.0468C8.89723 18.9434 8.73683 18.7906 8.61193 18.5884C8.48823 18.3861 8.41233 18.1448 8.38423 17.8645C8.35593 17.5818 8.38253 17.3314 8.46413 17.1132C8.54693 16.8949 8.67453 16.7209 8.84703 16.5911C9.02073 16.4612 9.23033 16.3875 9.47593 16.3699C9.72153 16.3523 9.94223 16.3952 10.1381 16.4986C10.3351 16.6019 10.4956 16.7553 10.6194 16.9588C10.7445 17.1622 10.8211 17.4052 10.8495 17.6879C10.8775 17.9682 10.8501 18.2169 10.7673 18.434C10.6855 18.651 10.5578 18.8245 10.3842 18.9544C10.2117 19.0841 10.0026 19.1578 9.75703 19.1754ZM9.71953 18.8009C9.90603 18.7875 10.0548 18.7288 10.1656 18.6248C10.2765 18.5208 10.3531 18.389 10.3953 18.2293C10.4376 18.0697 10.4497 17.8992 10.4315 17.7178C10.4133 17.5365 10.3675 17.3695 10.2939 17.217C10.2204 17.0645 10.1185 16.9443 9.98843 16.8563C9.85833 16.7684 9.70003 16.7311 9.51343 16.7444C9.32693 16.7578 9.17823 16.8171 9.06753 16.9223C8.95673 17.0275 8.88033 17.1605 8.83813 17.3213C8.79603 17.4821 8.78403 17.6531 8.80213 17.8345C8.82033 18.0159 8.86613 18.1823 8.93963 18.3336C9.01303 18.4849 9.11473 18.604 9.24473 18.6908C9.37473 18.7775 9.53303 18.8142 9.71953 18.8009Z" fill="#6BCAFF"/>
<path d="M22.2324 17.7613L22.0886 16.3267L22.0532 16.3292C22.0275 16.3809 21.99 16.4465 21.9409 16.5259C21.8917 16.6042 21.8175 16.6765 21.7183 16.7429C21.619 16.8081 21.482 16.847 21.3072 16.8595C21.0805 16.8758 20.8747 16.833 20.6897 16.7312C20.5045 16.6282 20.3525 16.4754 20.2335 16.2727C20.1143 16.0689 20.0404 15.8233 20.0116 15.5359C19.983 15.2509 20.0072 15 20.0842 14.7834C20.1612 14.5667 20.2814 14.395 20.4447 14.2682C20.608 14.1415 20.8041 14.0699 21.0332 14.0535C21.2103 14.0408 21.3531 14.0602 21.4618 14.1118C21.5715 14.162 21.6572 14.2223 21.7189 14.2926C21.7817 14.3617 21.8308 14.4187 21.8663 14.4636L21.9158 14.46L21.8727 14.0289L22.2764 14L22.6503 17.7313L22.2324 17.7613ZM21.3264 16.4809C21.494 16.4689 21.6313 16.4152 21.7383 16.3198C21.8452 16.2231 21.9209 16.0949 21.9656 15.9351C22.0101 15.7742 22.0221 15.5912 22.0015 15.3863C21.9812 15.1837 21.9339 15.0086 21.8597 14.8609C21.7853 14.712 21.686 14.5993 21.5618 14.5227C21.4375 14.4451 21.2903 14.4123 21.1203 14.4245C20.9432 14.4372 20.8002 14.4931 20.6912 14.5922C20.5833 14.6901 20.5075 14.8183 20.4639 14.9768C20.4214 15.1341 20.4097 15.3081 20.4288 15.4989C20.4482 15.6921 20.4953 15.8655 20.5702 16.0191C20.6461 16.1714 20.7471 16.2899 20.8733 16.3746C21.0006 16.458 21.1516 16.4935 21.3264 16.4809Z" fill="#6BCAFF"/>
<path d="M32.3838 6.80941C32.1382 6.82701 31.9169 6.78411 31.7198 6.68081C31.524 6.57741 31.3636 6.42451 31.2387 6.22231C31.1149 6.02001 31.039 5.77871 31.011 5.49841C30.9826 5.21571 31.0093 4.96531 31.0909 4.74711C31.1736 4.52891 31.3013 4.35481 31.4738 4.22501C31.6475 4.09511 31.8571 4.02141 32.1027 4.00381C32.3483 3.98621 32.569 4.02911 32.7649 4.13261C32.9619 4.23591 33.1224 4.38931 33.2462 4.59281C33.3712 4.79611 33.4479 5.03921 33.4762 5.32191C33.5043 5.60221 33.4769 5.85091 33.394 6.06801C33.3123 6.28501 33.1846 6.45841 33.0109 6.58831C32.8384 6.71811 32.6294 6.79181 32.3838 6.80941ZM32.3463 6.43481C32.5328 6.42151 32.6815 6.36281 32.7924 6.25871C32.9033 6.15471 32.9798 6.02291 33.0221 5.86331C33.0644 5.70371 33.0764 5.53321 33.0583 5.35181C33.0401 5.17041 32.9942 5.00351 32.9207 4.85101C32.8471 4.69841 32.7453 4.57821 32.6152 4.49031C32.4851 4.40231 32.3268 4.36501 32.1402 4.37841C31.9537 4.39171 31.805 4.45101 31.6943 4.55621C31.5835 4.66141 31.507 4.79441 31.4649 4.95521C31.4227 5.11601 31.4107 5.28711 31.4289 5.46851C31.4471 5.64991 31.4929 5.81621 31.5663 5.96751C31.6398 6.11891 31.7415 6.23791 31.8715 6.32471C32.0014 6.41151 32.1597 6.44821 32.3463 6.43481Z" fill="#6BCAFF"/>
<path d="M21.3838 22.8094C21.1382 22.827 20.9169 22.7841 20.7198 22.6808C20.524 22.5774 20.3636 22.4245 20.2387 22.2223C20.1149 22.02 20.039 21.7787 20.011 21.4984C19.9826 21.2157 20.0093 20.9653 20.0909 20.7471C20.1736 20.5289 20.3013 20.3548 20.4738 20.225C20.6475 20.0951 20.8571 20.0214 21.1027 20.0038C21.3483 19.9862 21.569 20.0291 21.7649 20.1326C21.9619 20.2359 22.1224 20.3893 22.2462 20.5928C22.3712 20.7961 22.4479 21.0392 22.4762 21.3219C22.5043 21.6022 22.4769 21.8509 22.394 22.068C22.3123 22.285 22.1846 22.4584 22.0109 22.5883C21.8384 22.7181 21.6294 22.7918 21.3838 22.8094ZM21.3463 22.4348C21.5328 22.4215 21.6815 22.3628 21.7924 22.2587C21.9033 22.1547 21.9798 22.0229 22.0221 21.8633C22.0644 21.7037 22.0764 21.5332 22.0583 21.3518C22.0401 21.1704 21.9942 21.0035 21.9207 20.851C21.8471 20.6984 21.7453 20.5782 21.6152 20.4903C21.4851 20.4023 21.3268 20.365 21.1402 20.3784C20.9537 20.3917 20.805 20.451 20.6943 20.5562C20.5835 20.6614 20.507 20.7944 20.4649 20.9552C20.4227 21.116 20.4107 21.2871 20.4289 21.4685C20.4471 21.6499 20.4929 21.8162 20.5663 21.9675C20.6398 22.1189 20.7415 22.2379 20.8715 22.3247C21.0014 22.4115 21.1597 22.4482 21.3463 22.4348Z" fill="#6BCAFF"/>
<path d="M15.9061 20.5075L15.8084 20.8489L14.4495 20.4601L14.5472 20.1187L15.9061 20.5075ZM15.123 19.6038L15.5259 19.7191L14.8108 22.2182C14.7782 22.332 14.7703 22.4221 14.787 22.4885C14.8052 22.554 14.8377 22.6039 14.8845 22.6382C14.9328 22.6718 14.9865 22.697 15.0457 22.7139C15.09 22.7266 15.1271 22.7348 15.1569 22.7384C15.1869 22.7408 15.211 22.7428 15.2291 22.7442L15.2074 23.1296C15.1772 23.132 15.1361 23.1313 15.0843 23.1276C15.0321 23.125 14.9684 23.1129 14.8933 23.0914C14.7795 23.0588 14.675 23.0025 14.5797 22.9223C14.4856 22.8424 14.4171 22.7421 14.374 22.6214C14.3321 22.5011 14.333 22.3647 14.3766 22.2122L15.123 19.6038Z" fill="#6BCAFF"/>
<path d="M15.319 10.9783L15.7219 11.0936L14.9169 13.9068C14.8706 14.0684 14.8027 14.2004 14.713 14.3028C14.6245 14.4055 14.5153 14.4734 14.3852 14.5063C14.2562 14.5396 14.1075 14.5321 13.9391 14.4839C13.9254 14.48 13.9118 14.4761 13.8981 14.4722C13.8845 14.4683 13.8708 14.4644 13.8572 14.4605L13.9646 14.0849C13.9783 14.0888 13.9908 14.0924 14.0022 14.0957C14.0136 14.0989 14.0261 14.1025 14.0397 14.1064C14.1626 14.1416 14.263 14.1309 14.3407 14.0744C14.4181 14.0189 14.4759 13.9247 14.514 13.7915L15.319 10.9783ZM15.6421 10.598C15.5636 10.5755 15.5035 10.5294 15.4619 10.4596C15.4215 10.3901 15.412 10.3179 15.4335 10.2428C15.455 10.1676 15.5013 10.1113 15.5723 10.0738C15.6445 10.0366 15.7199 10.0292 15.7984 10.0517C15.8769 10.0742 15.9364 10.1201 15.9769 10.1896C16.0185 10.2593 16.0285 10.3318 16.007 10.4069C15.9856 10.482 15.9387 10.5382 15.8665 10.5754C15.7954 10.6129 15.7206 10.6204 15.6421 10.598Z" fill="#6BCAFF"/>
<path d="M14.2799 9.7382C14.2116 9.7186 14.1524 9.6955 14.1021 9.6688C14.0516 9.6433 14.0175 9.6224 14 9.6063L14.204 9.2806C14.2947 9.3336 14.3786 9.3675 14.4557 9.3821C14.5327 9.3968 14.6089 9.3823 14.6842 9.3386C14.7603 9.2963 14.8419 9.2156 14.9289 9.0965L15.0627 8.9131L14.8473 6L15.2843 6.1251L15.4102 8.4216L15.4375 8.4294L16.7592 6.5471L17.1962 6.6722L15.2235 9.3581C15.1346 9.4792 15.0405 9.5735 14.9412 9.6411C14.8415 9.7099 14.7365 9.7518 14.6262 9.7671C14.5171 9.7826 14.4017 9.773 14.2799 9.7382Z" fill="#6BCAFF"/>
<path d="M7.6092 32.0094C7.4627 32.2275 7.2874 32.3845 7.0833 32.4804C6.8788 32.5746 6.6596 32.6082 6.4255 32.581C6.191 32.5523 5.95603 32.4629 5.72043 32.3127C5.48483 32.1626 5.30563 31.988 5.18273 31.789C5.05943 31.5884 4.99853 31.3798 5.00003 31.1632C5.00113 30.9451 5.07043 30.7338 5.20763 30.5294C5.28683 30.4115 5.38503 30.3078 5.50223 30.2183C5.61933 30.1287 5.75453 30.0654 5.90773 30.0284C6.0599 29.9906 6.2282 29.9905 6.4126 30.028C6.5969 30.0656 6.7964 30.1527 7.011 30.2895L7.1608 30.3849L5.98863 32.13L5.68313 31.9353L6.6177 30.544C6.4879 30.4613 6.355 30.413 6.2188 30.3992C6.0834 30.3845 5.95483 30.405 5.83323 30.4608C5.71233 30.5156 5.60963 30.6059 5.52513 30.7317C5.43203 30.8702 5.38643 31.0124 5.38833 31.1581C5.38993 31.3023 5.42793 31.4366 5.50243 31.5613C5.57693 31.686 5.67763 31.7887 5.80433 31.8695L6.008 31.9993C6.1817 32.1099 6.3487 32.1743 6.5091 32.1923C6.6691 32.2087 6.8163 32.1839 6.9504 32.1178C7.0836 32.0512 7.1974 31.9476 7.2918 31.8071C7.3531 31.7157 7.3956 31.6249 7.4192 31.5346C7.4424 31.4428 7.4457 31.353 7.4291 31.2652C7.4115 31.1768 7.3726 31.0924 7.3126 31.0121L7.6341 30.7371C7.7262 30.8462 7.7881 30.9706 7.8198 31.1101C7.8505 31.2489 7.8491 31.3954 7.8155 31.5494C7.7809 31.7027 7.7122 31.8561 7.6092 32.0094Z" fill="#6BCAFF"/>
<path d="M15 33.622L15.7503 31L16.1395 31.1114L16.0223 31.5211L16.0564 31.5308C16.1511 31.4065 16.2704 31.323 16.4143 31.2805C16.5586 31.2368 16.716 31.2394 16.8867 31.2883C17.0597 31.3378 17.1924 31.4182 17.2849 31.5296C17.3788 31.6402 17.4382 31.7748 17.463 31.9333L17.4903 31.9412C17.5962 31.825 17.7277 31.7462 17.8848 31.705C18.0422 31.6626 18.2148 31.6683 18.4026 31.722C18.637 31.7891 18.8078 31.9174 18.9148 32.1069C19.0222 32.2952 19.0318 32.5436 18.9436 32.852L18.4414 34.6068L18.0385 34.4915L18.5407 32.7367C18.5961 32.5432 18.5827 32.3898 18.5006 32.2764C18.4186 32.1631 18.3059 32.0859 18.1625 32.0449C17.9781 31.9921 17.8193 32.007 17.6861 32.0895C17.5532 32.1709 17.4625 32.2964 17.414 32.466L16.9255 34.173L16.5158 34.0558L17.0297 32.26C17.0724 32.1109 17.0584 31.977 16.9877 31.8583C16.9174 31.7384 16.8059 31.6567 16.6534 31.613C16.5487 31.5831 16.4429 31.5829 16.3359 31.6126C16.23 31.6427 16.135 31.6992 16.0509 31.7823C15.9683 31.8645 15.9086 31.9699 15.8718 32.0985L15.4028 33.7373L15 33.622Z" fill="#6BCAFF"/>
<path d="M11.9132 30.7743C11.6606 30.702 11.4586 30.5838 11.3073 30.4199C11.1574 30.2551 11.0618 30.0578 11.0205 29.8281C10.9806 29.5975 10.999 29.3479 11.0759 29.0793C11.1528 28.8108 11.2694 28.5881 11.4259 28.4112C11.5839 28.2336 11.7675 28.1125 11.9768 28.048C12.1875 27.9828 12.4113 27.984 12.648 28.0517C12.7845 28.0908 12.9129 28.1522 13.033 28.2358C13.1531 28.3194 13.2532 28.4281 13.3331 28.5618C13.4134 28.6943 13.462 28.8535 13.479 29.0394C13.496 29.2252 13.4695 29.4405 13.3995 29.6852L13.3506 29.8559L11.3295 29.2775L11.4291 28.9293L13.0406 29.3904C13.0829 29.2424 13.0911 29.102 13.0651 28.969C13.0403 28.8363 12.9834 28.7209 12.8946 28.6228C12.8068 28.525 12.6901 28.4553 12.5444 28.4136C12.3839 28.3677 12.2337 28.3678 12.0937 28.4139C11.9551 28.4592 11.8365 28.5361 11.7378 28.6445C11.639 28.7529 11.569 28.8794 11.5276 29.0239L11.4612 29.2561C11.4045 29.4541 11.3906 29.6317 11.4195 29.789C11.4498 29.9454 11.5162 30.077 11.6186 30.1839C11.7213 30.2896 11.854 30.3658 12.0168 30.4124C12.1226 30.4427 12.2224 30.4552 12.3163 30.45C12.4115 30.4441 12.4991 30.4199 12.579 30.3775C12.6591 30.3339 12.7293 30.2715 12.7895 30.1903L13.1475 30.4109C13.0687 30.5312 12.9666 30.6275 12.8413 30.7C12.7162 30.7713 12.5745 30.8145 12.4163 30.8296C12.2584 30.8435 12.0907 30.8251 11.9132 30.7743Z" fill="#6BCAFF"/>
<path d="M16.8187 29.1234C16.6722 29.3416 16.4969 29.4986 16.2928 29.5944C16.0883 29.6887 15.8691 29.7222 15.6349 29.6951C15.4005 29.6664 15.1655 29.5769 14.9299 29.4268C14.6943 29.2767 14.5151 29.1021 14.3921 28.9031C14.2689 28.7025 14.208 28.4939 14.2095 28.2773C14.2106 28.0591 14.2798 27.8478 14.4171 27.6435C14.4963 27.5255 14.5945 27.4218 14.7117 27.3323C14.8288 27.2428 14.964 27.1795 15.1172 27.1424C15.2694 27.1047 15.4377 27.1046 15.6221 27.1421C15.8064 27.1796 16.0059 27.2668 16.2205 27.4035L16.3703 27.499L15.198 29.2441L14.8926 29.0494L15.8272 27.658C15.6974 27.5753 15.5645 27.5271 15.4283 27.5133C15.2928 27.4985 15.1643 27.519 15.0427 27.5748C14.9218 27.6297 14.8191 27.72 14.7346 27.8458C14.6415 27.9843 14.5959 28.1265 14.5978 28.2722C14.5994 28.4163 14.6374 28.5507 14.7119 28.6754C14.7864 28.8 14.887 28.9027 15.0138 28.9835L15.2175 29.1133C15.3912 29.224 15.5582 29.2884 15.7186 29.3064C15.8786 29.3228 16.0257 29.298 16.1599 29.2319C16.2931 29.1652 16.4069 29.0616 16.5013 28.9211C16.5626 28.8297 16.6051 28.7389 16.6286 28.6487C16.6519 28.5568 16.6552 28.467 16.6386 28.3793C16.621 28.2909 16.5821 28.2065 16.5221 28.1261L16.8436 27.8511C16.9357 27.9603 16.9976 28.0846 17.0293 28.2241C17.06 28.363 17.0586 28.5094 17.025 28.6634C16.9904 28.8168 16.9217 28.9701 16.8187 29.1234Z" fill="#6BCAFF"/>
<path d="M7.0067 24.1901C7.1511 24.0951 7.3011 24.0352 7.4568 24.0106C7.6132 23.9869 7.7623 24.0028 7.9041 24.0581C8.0467 24.1143 8.1698 24.2145 8.2735 24.3586C8.3648 24.4854 8.4131 24.6051 8.4185 24.7177C8.4244 24.8313 8.4007 24.939 8.3472 25.0408C8.2937 25.1425 8.223 25.2386 8.1351 25.3291C8.0469 25.4211 7.9547 25.5087 7.8586 25.5918C7.7326 25.7002 7.6298 25.7871 7.55 25.8523C7.4699 25.9192 7.418 25.9767 7.3944 26.0249C7.3697 26.0736 7.3771 26.1254 7.4166 26.1802L7.4249 26.1917C7.5272 26.3339 7.6468 26.418 7.7836 26.444C7.9194 26.4707 8.0679 26.431 8.2291 26.3249C8.3962 26.2149 8.5016 26.0931 8.5453 25.9596C8.589 25.826 8.6011 25.7062 8.5816 25.6001L8.9968 25.4967C9.0343 25.6702 9.0306 25.827 8.9857 25.967C8.9405 26.1086 8.8697 26.2331 8.7735 26.3403C8.677 26.4491 8.5714 26.5413 8.4567 26.6168C8.3836 26.665 8.2933 26.7117 8.1859 26.7569C8.0783 26.8037 7.9613 26.8304 7.8349 26.8371C7.7076 26.8445 7.5766 26.8153 7.4419 26.7497C7.3072 26.684 7.1765 26.5633 7.05 26.3875L6 24.9293L6.35 24.6989L6.5658 24.9986L6.5836 24.9869C6.5728 24.9232 6.5753 24.8458 6.5913 24.7546C6.6072 24.6634 6.6473 24.5683 6.7116 24.4694C6.7759 24.3704 6.8743 24.2773 7.0067 24.1901ZM7.1733 24.5307C7.0349 24.6218 6.9372 24.7251 6.8804 24.8404C6.8225 24.9564 6.7994 25.0721 6.8112 25.1875C6.8219 25.3037 6.8605 25.4078 6.9269 25.5L7.151 25.8113C7.1534 25.7842 7.1746 25.7469 7.2146 25.6993C7.2544 25.6533 7.3031 25.6035 7.3607 25.55C7.4181 25.4981 7.4746 25.4481 7.5304 25.4001C7.5858 25.3537 7.6306 25.3157 7.6648 25.2861C7.7474 25.2147 7.819 25.14 7.8794 25.062C7.9395 24.9856 7.9755 24.906 7.9872 24.8232C7.9987 24.742 7.9734 24.6582 7.9111 24.5717C7.826 24.4536 7.7167 24.3938 7.5832 24.3926C7.4493 24.3929 7.3127 24.4389 7.1733 24.5307Z" fill="#6BCAFF"/>
<path d="M26.0067 35.1901C26.1511 35.0951 26.3011 35.0353 26.4568 35.0107C26.6132 34.987 26.7623 35.0028 26.9041 35.0581C27.0466 35.1144 27.1698 35.2146 27.2735 35.3587C27.3648 35.4855 27.4131 35.6052 27.4184 35.7178C27.4244 35.8314 27.4007 35.939 27.3472 36.0408C27.2937 36.1426 27.2229 36.2387 27.135 36.3291C27.0468 36.4212 26.9547 36.5088 26.8586 36.5919C26.7326 36.7003 26.6297 36.7871 26.5499 36.8524C26.4699 36.9193 26.418 36.9768 26.3944 37.0249C26.3697 37.0737 26.3771 37.1255 26.4165 37.1802L26.4248 37.1917C26.5272 37.3339 26.6468 37.418 26.7836 37.4441C26.9194 37.4708 27.0679 37.4311 27.229 37.325C27.3961 37.215 27.5015 37.0932 27.5453 36.9596C27.589 36.826 27.6011 36.7062 27.5816 36.6001L27.9968 36.4967C28.0343 36.6703 28.0306 36.827 27.9857 36.9671C27.9404 37.1087 27.8697 37.2331 27.7735 37.3404C27.677 37.4492 27.5714 37.5414 27.4567 37.6169C27.3835 37.665 27.2933 37.7117 27.1859 37.7569C27.0783 37.8037 26.9613 37.8305 26.8349 37.8372C26.7076 37.8446 26.5766 37.8154 26.4419 37.7498C26.3072 37.6841 26.1765 37.5634 26.05 37.3876L25 35.9294L25.35 35.6989L25.5658 35.9987L25.5836 35.9869C25.5727 35.9233 25.5753 35.8459 25.5912 35.7547C25.6072 35.6635 25.6473 35.5684 25.7116 35.4694C25.7759 35.3705 25.8742 35.2774 26.0067 35.1901ZM26.1733 35.5308C26.0349 35.6219 25.9372 35.7251 25.8803 35.8404C25.8225 35.9564 25.7994 36.0721 25.8111 36.1876C25.8219 36.3037 25.8605 36.4079 25.9269 36.5001L26.1509 36.8113C26.1533 36.7843 26.1745 36.747 26.2146 36.6994C26.2543 36.6534 26.303 36.6036 26.3607 36.5501C26.418 36.4982 26.4746 36.4482 26.5304 36.4001C26.5858 36.3537 26.6306 36.3157 26.6647 36.2862C26.7474 36.2148 26.8189 36.1401 26.8794 36.0621C26.9395 35.9857 26.9754 35.9061 26.9872 35.8233C26.9987 35.7421 26.9733 35.6582 26.9111 35.5718C26.826 35.4536 26.7167 35.3939 26.5832 35.3926C26.4493 35.3929 26.3127 35.439 26.1733 35.5308Z" fill="#6BCAFF"/>
<path d="M12.1624 23.5689L9 21.5535L9.2257 21.2175L9.5911 21.4503L9.6188 21.409C9.596 21.358 9.5689 21.2902 9.5373 21.2056C9.5055 21.1193 9.4938 21.0178 9.5023 20.9012C9.5105 20.7829 9.5641 20.6501 9.6631 20.5027C9.7911 20.3121 9.9524 20.1749 10.1469 20.0912C10.3414 20.0074 10.5549 19.9814 10.7874 20.0131C11.0198 20.0448 11.2569 20.1376 11.4984 20.2915C11.742 20.4468 11.9257 20.6221 12.0496 20.8175C12.1725 21.0123 12.2344 21.2131 12.2352 21.4199C12.235 21.626 12.1715 21.8234 12.0448 22.0121C11.9471 22.1575 11.8445 22.2584 11.7368 22.3147C11.6282 22.3703 11.5265 22.4017 11.432 22.4088C11.3364 22.4152 11.2591 22.4179 11.2 22.4167L11.1802 22.4462L12.396 23.221L12.1624 23.5689ZM10.3796 21.9444C10.5533 22.0551 10.7234 22.1277 10.8898 22.1622C11.0552 22.1961 11.2077 22.1887 11.3473 22.1401C11.4858 22.0909 11.602 21.9965 11.6957 21.857C11.7934 21.7116 11.836 21.5654 11.8234 21.4185C11.8106 21.27 11.7543 21.1288 11.6545 20.9951C11.5544 20.8597 11.4225 20.7399 11.2588 20.6356C11.0971 20.5325 10.9348 20.4642 10.7721 20.4306C10.609 20.3954 10.4565 20.4028 10.3146 20.4527C10.1724 20.501 10.0518 20.5989 9.9528 20.7462C9.8577 20.8877 9.8143 21.0299 9.8225 21.1726C9.8297 21.3147 9.8817 21.4517 9.9784 21.5835C10.0742 21.7147 10.2079 21.835 10.3796 21.9444Z" fill="#6BCAFF"/>
<path d="M20.3886 29.6188L21.3306 30.9272L20.9806 31.1576L19.387 28.9443L19.737 28.7139L20.0068 29.0885L20.0305 29.0729C20.003 28.9254 20.0172 28.7751 20.0732 28.6222C20.1299 28.4701 20.2442 28.3375 20.4163 28.2243C20.5586 28.1305 20.707 28.0775 20.8613 28.0651C21.0163 28.0537 21.1697 28.0886 21.3215 28.1699C21.474 28.2522 21.618 28.3874 21.7536 28.5757L22.7662 29.9821L22.4162 30.2125L21.4202 28.8292C21.304 28.6678 21.1648 28.5697 21.0027 28.5348C20.8396 28.5006 20.6854 28.5313 20.5401 28.627C20.4531 28.6843 20.3802 28.7641 20.3213 28.8666C20.2615 28.9697 20.2331 29.0861 20.2361 29.2158C20.2381 29.3461 20.289 29.4805 20.3886 29.6188Z" fill="#6BCAFF"/>
<path d="M26.4629 30.5849C26.2262 30.5172 26.0347 30.4014 25.8882 30.2376C25.7429 30.0741 25.6492 29.8768 25.607 29.6456C25.566 29.4147 25.5842 29.1638 25.6617 28.8929C25.7399 28.6198 25.8576 28.3955 26.0149 28.2202C26.1734 28.0451 26.3575 27.9267 26.5672 27.8648C26.7782 27.8033 27.002 27.8064 27.2387 27.8741C27.4754 27.9418 27.6664 28.0574 27.8117 28.2209C27.9581 28.3847 28.0517 28.5826 28.0924 28.8147C28.1343 29.047 28.1161 29.2998 28.0379 29.5729C27.9604 29.8438 27.8426 30.0661 27.6845 30.2401C27.5275 30.4143 27.3436 30.5322 27.1327 30.5937C26.9229 30.6556 26.6997 30.6526 26.4629 30.5849ZM26.5665 30.223C26.7463 30.2745 26.9074 30.2707 27.0499 30.2117C27.1924 30.1528 27.313 30.0562 27.4117 29.9219C27.5105 29.7876 27.5849 29.6329 27.6351 29.4576C27.6852 29.2824 27.7041 29.1111 27.6916 28.9438C27.6792 28.7764 27.6283 28.6295 27.5389 28.503C27.4495 28.3765 27.3149 28.2875 27.1351 28.236C26.9553 28.1845 26.794 28.1889 26.6512 28.249C26.5084 28.3091 26.3875 28.4068 26.2884 28.5422C26.1894 28.6776 26.1147 28.833 26.0646 29.0082C26.0144 29.1835 25.9958 29.3542 26.0085 29.5204C26.0213 29.6865 26.0725 29.8323 26.1622 29.9577C26.2519 30.0831 26.3867 30.1716 26.5665 30.223Z" fill="#6BCAFF"/>
<path d="M27.5523 33.6624L28.4944 34.9707L28.1444 35.2011L26.5508 32.9879L26.9008 32.7575L27.1705 33.1321L27.1943 33.1165C27.1667 32.9689 27.181 32.8187 27.237 32.6657C27.2936 32.5137 27.408 32.3811 27.58 32.2678C27.7224 32.1741 27.8707 32.121 28.025 32.1086C28.18 32.0972 28.3335 32.1322 28.4853 32.2135C28.6378 32.2957 28.7818 32.431 28.9174 32.6193L29.9299 34.0256L29.58 34.256L28.584 32.8727C28.4678 32.7114 28.3286 32.6132 28.1665 32.5784C28.0034 32.5441 27.8492 32.5749 27.7039 32.6705C27.6169 32.7278 27.5439 32.8077 27.4851 32.9101C27.4253 33.0133 27.3969 33.1297 27.3999 33.2593C27.4019 33.3897 27.4527 33.524 27.5523 33.6624Z" fill="#6BCAFF"/>
<path d="M73.6306 101.061L96.844 69.4793L110.073 71.954L110.803 73.7554L100.469 88.868L99.514 88.738L98.149 88.553L106.676 75.9196L95.293 73.3548L77.7021 97.868L85.6238 104.049L84.5961 104.25L83.251 105.259L82.5521 106.527L82.154 108.345L82.1819 108.86L82.3101 109.558L82.5386 110.44L73.9511 102.807L73.6306 101.061Z" fill="#6BCAFF"/>
<path d="M95.0369 90.279C95.3699 89.947 95.7829 89.702 96.2329 89.572L96.6549 89.451C97.0039 89.35 97.3629 89.293 97.7209 89.283L98.4249 89.262C98.9909 89.246 99.5439 89.354 100.042 89.578L100.361 89.723C100.736 89.892 101.05 90.158 101.272 90.494C101.462 90.783 101.578 91.115 101.613 91.465L101.667 92.021C101.711 92.465 101.683 92.918 101.586 93.365L101.395 94.238C101.303 94.654 101.072 95.039 100.738 95.33C100.623 95.431 100.498 95.518 100.364 95.592L100.153 95.707C99.5909 96.016 98.9719 96.194 98.3469 96.228L98.2359 96.234C97.7259 96.261 97.2229 96.202 96.7469 96.059L95.9429 95.816C95.5679 95.703 95.2269 95.515 94.9399 95.263C94.4649 94.846 94.1609 94.274 94.0769 93.64L94.0659 93.553C94.0199 93.207 94.0359 92.851 94.1129 92.5L94.3129 91.587C94.4189 91.1 94.6709 90.645 95.0369 90.279Z" fill="#6BCAFF"/>
<path d="M84.4627 105.689C84.8215 105.42 85.2454 105.249 85.6892 105.196L86.0869 105.148C86.5161 105.096 86.9494 105.115 87.3692 105.202L88.2701 105.389C88.6343 105.465 88.9862 105.586 89.3173 105.749L89.9268 106.05C90.3262 106.247 90.6521 106.561 90.8612 106.949C91.0218 107.247 91.1084 107.58 91.1139 107.921L91.1233 108.502C91.1306 108.952 91.0632 109.402 90.9239 109.834L90.7287 110.44C90.5522 110.987 90.1863 111.46 89.6956 111.775C88.8596 112.389 87.7739 112.551 86.8133 112.204L86.4372 112.068L84.8783 111.352C84.5212 111.188 84.2017 110.957 83.9376 110.67C83.4739 110.168 83.2021 109.514 83.1678 108.829C83.1496 108.466 83.1979 108.097 83.3107 107.747L83.5754 106.926C83.7337 106.435 84.0442 106.002 84.4627 105.689Z" fill="#6BCAFF"/>
<path d="M89.518 98.281C89.8376 97.999 90.2221 97.8 90.6323 97.702L91.2125 97.565C91.5615 97.482 91.9161 97.439 92.2692 97.436L93.1039 97.429C93.6828 97.424 94.248 97.531 94.768 97.742L95.216 97.925C95.575 98.071 95.884 98.304 96.116 98.604C96.342 98.896 96.489 99.243 96.542 99.614L96.607 100.065C96.667 100.481 96.65 100.91 96.558 101.332L96.409 102.015C96.308 102.476 96.036 102.897 95.646 103.194C95.572 103.251 95.502 103.313 95.436 103.378L95.374 103.44C94.746 104.066 93.8962 104.428 93.0303 104.437L92.9168 104.438C92.3576 104.444 91.8164 104.313 91.3424 104.058L90.2508 103.471C90.0836 103.381 89.9246 103.278 89.7752 103.164L89.4927 102.947C88.9939 102.565 88.6595 102.016 88.5462 101.394C88.4828 101.046 88.4903 100.684 88.5681 100.329L88.7254 99.61C88.836 99.104 89.115 98.637 89.518 98.281Z" fill="#6BCAFF"/>
<path d="M105.391 83C106.122 83.7696 106.206 85.0334 105.582 85.8707L104.883 86.81C104.186 87.7466 103.087 88.1749 102 87.934L105.391 83Z" fill="#6BCAFF"/>
<path d="M83.539 78.9774L83.531 78.971C83.4443 78.9023 83.3367 78.861 83.2205 78.8518C83.1698 78.8477 83.1181 78.8499 83.0665 78.8581L82.9562 78.8758C82.6451 78.9257 82.3471 79.0659 82.1024 79.2776L80.6193 80.5608L78.0033 82.748L74.915 85.376L72.4262 87.573L69.465 90.211L66.9762 92.408L65.1292 94.378C65.0606 94.451 64.9969 94.529 64.9388 94.61L63.7046 96.327C63.6448 96.41 63.591 96.496 63.5435 96.586L62.8974 97.805C62.8346 97.924 62.7832 98.047 62.744 98.173L62.4634 99.074L62.2795 100.027C62.2404 100.229 62.1699 100.428 62.0704 100.615L61.8146 101.098L60.4402 103.225C60.3752 103.325 60.302 103.421 60.2213 103.511L56.0668 108.145L50.6529 113.462L48.2793 115.787C48.0815 115.981 46.8184 117.018 45.9191 117.752C45.5376 118.063 45.6705 118.676 46.1468 118.802L47.247 119.091C52.0623 120.358 57.0209 121 62.0001 121L63.2019 120.469C63.3229 120.411 63.4482 120.363 63.5761 120.327L65.0713 119.908C65.1287 119.892 65.1869 119.881 65.2453 119.875L65.3121 119.868C66.173 119.78 66.5763 118.709 65.93 118.227C65.8919 118.199 65.8565 118.167 65.8244 118.132L65.0737 117.325C64.9656 117.209 64.8746 117.078 64.8029 116.936L64.0705 115.487L63.3161 113.573C63.3009 113.534 63.3131 113.488 63.3467 113.456C63.3987 113.408 63.4787 113.414 63.5106 113.469L64.4157 115.035L65.3774 116.34C65.4857 116.487 65.6172 116.615 65.7678 116.721L66.5632 117.281L68.3289 118.225C68.5533 118.345 68.8051 118.417 69.0694 118.438L70.8108 118.577C70.992 118.591 71.177 118.581 71.3607 118.547L72.2884 118.375L74.1989 117.786C74.2973 117.756 74.394 117.718 74.4882 117.675L78.4574 115.832L80.7962 114.641C82.1332 113.96 82.4671 112.244 81.4324 111.371L80.0584 110.212L75.6117 106.506L73.1374 104.388C72.8723 104.162 72.6851 103.861 72.5966 103.519L72.2708 102.263C72.1884 101.945 72.2676 101.592 72.4853 101.308L75.2416 97.057L77.8006 93.319C77.8644 93.226 77.8139 93.11 77.7057 93.101C77.6906 93.1 77.6752 93.101 77.66 93.105L76.8884 93.272C76.7482 93.302 76.6323 93.194 76.6587 93.058C76.6636 93.032 76.6735 93.007 76.6877 92.984L77.0418 92.41L77.387 91.959L78.2349 90.908L79.3674 89.721L80.3121 88.838L81.5414 87.819L82.5164 86.778L83.0452 86.181C83.1326 86.082 83.211 85.977 83.2794 85.866L83.5521 85.424L83.9581 84.658L83.9714 84.636C84.0867 84.45 84.1665 84.247 84.2066 84.039L84.2673 83.725L84.419 82.938L84.5031 82.503C84.5279 82.374 84.5398 82.245 84.5387 82.117L84.5347 81.67L84.4542 81.0368C84.4396 80.9218 84.4142 80.8094 84.3782 80.701L84.1614 80.0474C84.1245 79.9361 84.0767 79.8295 84.0185 79.7289L83.8157 79.378L83.6751 79.1349C83.6401 79.0743 83.5941 79.021 83.539 78.9774Z" fill="#6BCAFF"/>
<path d="M67.4124 80.6672C68.6467 80.3648 69.6404 79.6535 70.1844 78.5518C70.7279 77.4497 70.7376 76.1275 70.3109 74.7941" fill="#6BCAFF"/>
<path d="M65.1816 78.0197C65.6909 77.6843 66.154 77.1694 66.489 76.5155C66.8239 75.8615 66.9781 75.1687 66.9661 74.533" fill="#6BCAFF"/>
<path d="M68.0417 85.303C70.562 84.61 72.6104 83.084 73.7593 80.7761C74.9082 78.468 74.9804 75.7336 74.166 73" fill="#6BCAFF"/>
<path d="M95.675 83.945C95.83 83.067 95.985 82.189 96.139 81.311C96.298 80.4242 96.455 79.5418 96.61 78.6638C96.066 79.3685 95.52 80.0718 94.97 80.7738C94.42 81.476 93.8717 82.183 93.3243 82.897L95.675 83.945ZM96.629 88.822C96.606 88.874 96.578 88.92 96.546 88.958C96.524 88.991 96.495 88.998 96.458 88.982C96.415 88.963 96.309 88.91 96.14 88.824C95.977 88.741 95.834 88.672 95.711 88.617C95.519 88.532 95.328 88.447 95.137 88.361C94.952 88.279 94.76 88.204 94.561 88.136C94.458 88.101 94.354 88.06 94.249 88.013C94.147 87.978 94.046 87.938 93.9474 87.894C93.9166 87.88 93.9008 87.858 93.9002 87.826C93.9097 87.788 93.9223 87.751 93.9379 87.716L93.9942 87.615C94.006 87.589 94.024 87.565 94.048 87.544C94.076 87.515 94.102 87.505 94.127 87.516L94.58 87.719C94.636 87.743 94.705 87.753 94.789 87.749C94.879 87.746 94.945 87.697 94.988 87.601C95 87.574 95.023 87.464 95.058 87.269C95.097 87.065 95.143 86.822 95.195 86.54C95.25 86.25 95.303 85.957 95.352 85.664C95.402 85.37 95.447 85.111 95.488 84.888C95.532 84.655 95.559 84.504 95.568 84.434L93.0414 83.307C92.9877 83.378 92.8861 83.507 92.7366 83.692C92.5911 83.87 92.4257 84.075 92.2404 84.308C92.0613 84.544 91.881 84.774 91.6997 84.998C91.5245 85.225 91.3742 85.421 91.2488 85.586C91.1335 85.745 91.0661 85.847 91.0465 85.891C90.9917 86.013 91.0028 86.113 91.0797 86.189C91.1566 86.266 91.2259 86.318 91.2876 86.345C91.3493 86.373 91.4048 86.397 91.4541 86.419C91.5035 86.441 91.5456 86.455 91.5803 86.46C91.5927 86.465 91.6143 86.475 91.6451 86.489C91.686 86.497 91.7096 86.502 91.7158 86.505C91.7528 86.521 91.7607 86.561 91.7394 86.626C91.7244 86.693 91.7059 86.742 91.6841 86.775C91.6623 86.807 91.6371 86.822 91.6085 86.82C91.59 86.812 91.5684 86.802 91.5437 86.791C91.3648 86.711 91.1847 86.626 91.0036 86.534C90.8224 86.443 90.6423 86.357 90.4634 86.278C90.3277 86.217 90.1931 86.162 90.0596 86.113C89.9261 86.064 89.7915 86.01 89.6558 85.949C89.6003 85.924 89.5921 85.868 89.6312 85.78C89.686 85.657 89.7566 85.615 89.843 85.654C89.8738 85.668 89.9089 85.688 89.9481 85.716C89.9913 85.736 90.0376 85.756 90.087 85.778C90.1548 85.809 90.2344 85.813 90.3258 85.79C90.4272 85.762 90.5359 85.684 90.6518 85.557C90.7178 85.491 90.8735 85.308 91.1186 85.007C91.3638 84.706 91.6678 84.331 92.0305 83.883C92.3971 83.425 92.7856 82.936 93.1959 82.414C93.6163 81.885 94.032 81.36 94.442 80.8383C94.852 80.3162 95.227 79.8311 95.568 79.383C95.914 78.9377 96.197 78.5692 96.416 78.2774C96.638 77.9769 96.764 77.7959 96.791 77.7345C96.799 77.7169 96.799 77.6908 96.793 77.6563C96.79 77.6129 96.79 77.5868 96.794 77.578C96.81 77.5429 96.829 77.5251 96.851 77.5246C96.921 77.5345 96.991 77.5503 97.063 77.5717C97.135 77.5932 97.204 77.6133 97.269 77.6321C97.357 77.6503 97.443 77.6729 97.528 77.6998C97.616 77.7181 97.702 77.7406 97.786 77.7676L96.073 88.053C96.059 88.152 96.074 88.243 96.118 88.325C96.173 88.402 96.231 88.455 96.292 88.482C96.348 88.507 96.404 88.532 96.459 88.556C96.525 88.575 96.588 88.598 96.65 88.626C96.675 88.637 96.68 88.665 96.667 88.712C96.654 88.759 96.641 88.795 96.629 88.822Z" fill="#6BCAFF"/>
<path fill-rule="evenodd" clip-rule="evenodd" d="M83.6103 96.109C82.3442 97.779 82.3876 99.699 83.7074 100.396C85.0272 101.093 87.1236 100.303 88.3897 98.633C89.6559 96.963 89.6124 95.043 88.2926 94.346C86.9728 93.649 84.8765 94.438 83.6103 96.109ZM88.3514 94.269C86.9977 93.554 84.8477 94.363 83.549 96.076C82.2504 97.79 82.295 99.758 83.6487 100.473C85.0023 101.188 87.1524 100.379 88.451 98.665C89.7496 96.952 89.705 94.984 88.3514 94.269Z" fill="#6BCAFF"/>
<path d="M85.6912 97.778C85.805 97.838 85.9574 97.839 86.115 97.779C86.2726 97.72 86.4225 97.606 86.5316 97.462L87.046 96.783C87.1551 96.639 87.2146 96.477 87.2113 96.333C87.208 96.189 87.1423 96.074 87.0285 96.014C86.9148 95.954 86.7623 95.953 86.6047 96.013C86.4471 96.072 86.2973 96.186 86.1881 96.33L85.6738 97.009C85.5646 97.153 85.5052 97.315 85.5084 97.459C85.5117 97.603 85.5775 97.718 85.6912 97.778Z" fill="#6BCAFF"/>
<path d="M86.8535 97.632C86.8808 97.596 86.8957 97.555 86.8949 97.519C86.894 97.483 86.8776 97.454 86.8492 97.439C86.8207 97.424 86.7826 97.424 86.7432 97.439C86.7038 97.454 86.6663 97.482 86.6391 97.518C86.5026 97.698 86.3153 97.841 86.1183 97.915C85.9213 97.989 85.7307 97.989 85.5886 97.914C85.4464 97.839 85.3642 97.695 85.3601 97.515C85.356 97.334 85.4303 97.132 85.5668 96.952C85.594 96.916 85.6089 96.876 85.6081 96.839C85.6073 96.803 85.5908 96.775 85.5624 96.76C85.534 96.745 85.4958 96.745 85.4564 96.759C85.417 96.774 85.3796 96.803 85.3523 96.839C85.1795 97.067 85.0775 97.322 85.0649 97.557C85.0523 97.792 85.13 97.991 85.2838 98.118L85.0698 98.4L84.8436 98.281C84.8183 98.267 84.7843 98.267 84.7493 98.28C84.7142 98.294 84.6809 98.319 84.6566 98.351L84.634 98.381C84.6097 98.413 84.5964 98.449 84.5972 98.481C84.5979 98.513 84.6125 98.539 84.6378 98.552L85.3048 98.904C85.3301 98.918 85.364 98.918 85.3991 98.905C85.4342 98.891 85.4675 98.866 85.4918 98.834L85.5144 98.804C85.5387 98.772 85.5519 98.736 85.5512 98.704C85.5505 98.672 85.5359 98.646 85.5106 98.633L85.2843 98.513L85.4983 98.231C85.7015 98.293 85.9503 98.266 86.1991 98.156C86.448 98.046 86.6803 97.86 86.8535 97.632Z" fill="#6BCAFF"/>
<path d="M46.1624 4.56876L43 2.55346L43.2257 2.21736L43.5911 2.45016L43.6188 2.40896C43.5961 2.35796 43.5689 2.29016 43.5374 2.20546C43.5055 2.11926 43.4938 2.01776 43.5023 1.90106C43.5105 1.78286 43.5641 1.64996 43.6631 1.50256C43.7912 1.31196 43.9524 1.17476 44.1469 1.09106C44.3415 1.00736 44.5549 0.981364 44.7874 1.01306C45.0199 1.04466 45.2569 1.13746 45.4985 1.29146C45.7421 1.44666 45.9258 1.62196 46.0497 1.81746C46.1726 2.01226 46.2344 2.21306 46.2352 2.41976C46.2351 2.62596 46.1716 2.82336 46.0449 3.01206C45.9472 3.15746 45.8445 3.25826 45.7369 3.31456C45.6282 3.37026 45.5266 3.40156 45.432 3.40866C45.3364 3.41516 45.2591 3.41776 45.2 3.41666L45.1802 3.44606L46.3961 4.22096L46.1624 4.56876ZM44.3797 2.94436C44.5534 3.05506 44.7234 3.12766 44.8899 3.16216C45.0553 3.19596 45.2078 3.18856 45.3473 3.14006C45.4859 3.09076 45.602 2.99646 45.6957 2.85686C45.7934 2.71146 45.836 2.56526 45.8235 2.41836C45.8106 2.26986 45.7543 2.12876 45.6546 1.99506C45.5545 1.85966 45.4226 1.73986 45.2588 1.63546C45.0971 1.53246 44.9349 1.46416 44.7721 1.43056C44.609 1.39536 44.4565 1.40276 44.3146 1.45266C44.1724 1.50096 44.0518 1.59876 43.9528 1.74616C43.8578 1.88766 43.8143 2.02976 43.8225 2.17256C43.8297 2.31466 43.8817 2.45156 43.9785 2.58336C44.0742 2.71456 44.208 2.83496 44.3797 2.94436Z" fill="#6BCAFF"/>
</g>
</g>
<defs>
<clipPath id="clip0_115_351">
<rect width="111" height="121" fill="white"/>
</clipPath>
</defs>
</svg>
